<?xml version="1.0" encoding="UTF-8" standalone="no"?>
<!DOCTYPE svg PUBLIC "-//W3C//DTD SVG 1.1//EN" "http://www.w3.org/Graphics/SVG/1.1/DTD/svg11.dtd">
<svg xmlns="http://www.w3.org/2000/svg" version="1.1" viewBox="0.00 0.00 640.00 274.00">
<path fill="#80ac39" d="
  M 151.32 14.69
  C 150.48 11.04 151.91 6.89 155.36 5.23
  Q 157.03 4.42 157.19 6.27
  Q 157.74 12.72 152.07 15.08
  A 0.56 0.55 72.1 0 1 151.32 14.69
  Z"
/>
<path fill="#80ac39" d="
  M 137.73 7.02
  C 139.67 10.94 138.82 18.36 133.12 18.54
  Q 132.62 18.55 132.33 18.14
  C 129.71 14.33 133.81 8.92 136.88 6.80
  A 0.58 0.58 0.0 0 1 137.73 7.02
  Z"
/>
<path fill="#80ac39" d="
  M 178.92 249.88
  Q 190.08 241.39 203.38 237.26
  C 221.01 231.78 248.20 217.30 251.49 196.75
  C 252.99 187.34 253.90 179.58 260.35 172.86
  Q 270.15 162.62 275.37 151.14
  Q 279.20 142.72 277.55 151.82
  Q 275.17 164.88 272.56 182.00
  C 271.51 188.85 265.84 197.44 258.95 200.74
  C 257.23 201.57 254.72 201.97 252.63 202.68
  Q 252.14 202.85 251.89 203.30
  L 245.13 215.60
  Q 245.00 215.84 245.26 215.73
  Q 253.30 212.24 261.18 208.56
  C 263.82 207.33 265.51 206.23 268.45 207.75
  A 0.66 0.66 0.0 0 1 268.55 208.86
  C 265.69 211.01 263.17 211.92 259.25 212.69
  C 252.41 214.03 247.43 216.16 241.85 220.93
  C 233.78 227.85 227.64 234.14 217.19 237.62
  Q 216.66 237.80 216.32 237.76
  A 0.44 0.44 0.0 0 1 216.18 236.93
  Q 225.96 232.09 234.18 224.95
  A 0.18 0.17 6.2 0 0 233.96 224.68
  Q 221.69 233.56 216.72 235.51
  C 200.08 242.03 181.13 246.65 172.91 264.21
  A 0.37 0.37 0.0 0 0 173.27 264.73
  L 178.29 264.42
  Q 178.78 264.39 179.04 263.96
  Q 184.22 255.23 192.23 249.49
  C 195.60 247.08 213.52 239.14 217.42 240.59
  A 0.59 0.58 -71.6 0 1 217.77 241.30
  Q 216.80 244.49 214.14 244.71
  Q 194.28 246.28 184.06 263.24
  Q 183.82 263.65 184.29 263.63
  C 195.28 263.25 210.99 260.95 215.92 249.43
  A 0.26 0.26 0.0 0 1 216.42 249.58
  Q 215.79 253.27 213.98 256.52
  A 0.45 0.45 0.0 0 0 214.55 257.15
  Q 229.20 250.91 243.63 243.56
  C 250.72 239.94 252.58 233.59 255.56 227.06
  C 261.13 214.88 277.39 220.43 285.81 214.38
  A 0.33 0.33 0.0 0 1 286.26 214.86
  C 278.98 223.69 272.85 236.15 260.32 237.04
  Q 259.81 237.08 259.45 237.45
  C 245.36 251.80 228.15 265.41 207.90 269.44
  Q 202.63 270.49 192.90 270.48
  Q 161.98 270.44 131.07 270.71
  C 87.96 271.08 53.47 240.27 27.37 209.46
  C 26.24 208.12 25.59 206.46 24.97 204.87
  A 0.49 0.49 0.0 0 1 25.79 204.36
  C 52.99 234.29 96.72 257.73 136.66 263.73
  A 0.51 0.51 0.0 0 0 137.17 262.95
  Q 132.53 255.71 129.86 247.54
  C 127.71 240.98 124.61 236.48 118.94 233.28
  Q 110.22 228.37 101.49 223.42
  C 89.98 216.90 80.38 208.04 68.75 201.59
  A 1.31 1.30 53.2 0 0 67.82 201.45
  C 55.40 204.00 47.94 203.41 37.91 194.97
  Q 29.29 187.72 21.34 179.88
  A 0.25 0.25 0.0 0 1 21.60 179.46
  C 35.94 184.68 50.81 180.59 62.59 192.06
  Q 69.73 199.00 77.76 205.06
  A 0.21 0.21 0.0 0 0 78.05 204.76
  Q 68.50 193.11 57.73 182.66
  C 52.41 177.50 45.62 180.06 39.84 175.14
  Q 38.20 173.75 34.49 168.59
  Q 27.44 158.78 18.06 150.56
  A 0.40 0.40 0.0 0 1 18.45 149.87
  Q 29.02 153.22 40.07 155.85
  C 57.55 160.01 54.80 171.75 63.09 183.16
  Q 66.21 187.46 80.08 202.92
  Q 92.71 216.99 112.65 224.57
  Q 113.37 224.84 113.03 224.16
  L 108.69 215.45
  Q 108.40 214.87 107.75 214.84
  C 93.02 214.29 79.38 196.59 72.57 185.00
  A 0.16 0.16 0.0 0 1 72.79 184.79
  C 83.22 191.35 96.16 191.74 105.36 199.59
  C 111.08 204.46 110.27 210.19 112.67 216.52
  Q 117.09 228.15 127.97 234.85
  A 0.58 0.58 0.0 0 0 128.86 234.36
  C 129.05 217.41 114.77 197.91 102.40 187.77
  C 93.61 180.57 81.14 176.79 69.80 172.50
  C 65.03 170.69 62.06 167.39 59.82 162.51
  C 58.10 158.77 57.07 153.60 51.99 152.67
  C 47.97 151.94 43.64 151.65 40.24 149.64
  C 32.48 145.04 28.46 135.81 24.55 128.57
  C 21.90 123.66 18.84 119.77 15.49 115.59
  A 0.44 0.44 0.0 0 1 16.12 114.97
  C 21.30 119.27 27.42 119.53 34.77 121.40
  C 46.72 124.44 56.10 132.90 57.62 145.54
  C 57.87 147.60 57.15 149.67 56.94 151.83
  A 1.08 1.07 -66.0 0 0 57.28 152.72
  C 62.91 157.83 60.35 164.65 68.77 168.45
  Q 72.71 170.23 80.08 172.79
  Q 80.74 173.02 80.60 172.34
  L 79.41 166.48
  Q 79.29 165.93 78.76 165.78
  C 69.56 163.12 66.92 160.92 65.83 150.92
  C 65.37 146.71 65.14 142.66 64.14 138.53
  Q 63.76 136.97 63.67 135.13
  A 0.32 0.32 0.0 0 1 64.24 134.92
  Q 72.50 145.65 77.55 151.18
  Q 80.70 154.63 81.52 158.83
  C 82.21 162.33 80.47 166.59 81.62 170.11
  Q 83.45 175.71 89.55 176.87
  A 0.24 0.24 0.0 0 0 89.79 176.49
  L 85.13 169.65
  A 0.26 0.26 0.0 0 1 85.36 169.24
  Q 85.59 169.25 85.79 169.25
  Q 86.00 169.25 86.12 169.42
  L 87.70 171.75
  A 0.32 0.32 0.0 0 0 88.27 171.50
  Q 88.09 170.75 87.79 170.07
  Q 87.59 169.63 88.02 169.41
  Q 89.25 168.77 89.58 169.96
  Q 92.07 178.88 100.68 182.75
  A 0.30 0.30 0.0 0 0 101.08 182.38
  Q 98.48 174.84 97.55 166.91
  A 0.95 0.95 0.0 0 0 97.03 166.17
  C 92.10 163.68 86.96 161.51 83.48 156.67
  C 80.31 152.27 77.86 146.27 75.43 141.13
  C 72.11 134.15 61.29 133.49 58.39 126.73
  Q 58.11 126.09 58.77 126.34
  Q 70.79 130.91 82.54 135.98
  Q 88.25 138.45 92.96 142.53
  Q 93.63 143.11 93.51 142.23
  L 92.70 136.27
  Q 92.64 135.81 92.23 135.56
  C 86.14 131.93 82.10 127.70 83.95 120.26
  A 0.71 0.70 21.0 0 0 83.59 119.47
  C 78.51 116.83 73.23 119.66 67.80 119.11
  Q 59.68 118.30 54.32 112.94
  C 52.05 110.67 33.66 92.73 34.04 91.35
  A 0.51 0.50 -66.6 0 1 34.79 91.05
  C 40.16 94.35 46.20 94.58 53.75 95.31
  C 65.03 96.39 75.99 100.40 80.22 111.99
  C 83.26 120.32 96.08 117.52 96.52 129.48
  C 96.63 132.49 94.24 135.43 94.91 138.27
  C 96.18 143.69 100.46 149.69 100.26 154.95
  C 99.90 164.41 99.43 172.14 103.40 180.36
  C 106.55 186.87 113.83 193.50 119.17 199.42
  Q 119.93 200.27 119.86 199.13
  C 119.62 194.91 119.76 185.96 116.33 183.48
  C 110.41 179.19 105.41 174.68 105.31 166.93
  Q 105.15 155.92 104.17 145.08
  A 0.33 0.33 0.0 0 1 104.73 144.82
  C 114.30 154.44 121.03 166.96 121.62 180.76
  Q 122.04 190.58 123.16 200.34
  C 124.01 207.72 127.42 214.77 129.84 221.80
  C 132.89 230.61 131.90 239.76 134.77 248.56
  Q 137.51 256.96 142.96 264.05
  Q 143.22 264.39 143.64 264.42
  L 147.52 264.71
  A 0.61 0.60 80.5 0 0 148.12 263.86
  Q 144.49 255.46 141.89 246.45
  Q 136.55 227.88 129.18 209.99
  C 125.32 200.63 127.20 185.08 127.24 174.56
  C 127.26 169.84 124.43 164.17 121.52 159.42
  Q 108.75 138.56 98.49 116.34
  Q 98.28 115.87 97.79 115.68
  C 85.16 110.84 80.89 101.62 77.26 89.50
  A 1.04 1.04 0.0 0 0 76.62 88.82
  C 63.04 83.76 60.05 71.85 59.96 58.66
  Q 59.89 47.95 58.35 37.51
  A 0.24 0.24 0.0 0 1 58.79 37.33
  Q 61.47 41.10 64.94 44.30
  C 77.64 56.01 84.33 68.81 80.55 86.57
  C 78.72 95.13 89.31 107.21 95.76 111.66
  A 0.06 0.06 0.0 0 0 95.86 111.59
  Q 93.67 102.29 93.75 94.98
  C 93.83 87.39 88.80 84.01 86.22 77.91
  C 80.64 64.73 90.19 56.91 93.79 45.42
  Q 94.03 44.65 94.30 45.41
  Q 96.37 51.23 100.05 56.10
  Q 102.57 59.43 103.14 61.43
  C 105.40 69.28 99.48 79.94 94.17 85.99
  Q 93.83 86.38 93.97 86.88
  Q 95.75 93.24 96.63 99.69
  C 97.83 108.42 100.47 114.90 104.65 122.22
  Q 105.67 124.03 105.55 121.95
  Q 105.23 116.46 106.02 111.07
  Q 106.09 110.55 105.84 110.10
  Q 98.53 96.88 104.92 84.20
  C 107.19 79.71 111.64 75.04 115.07 70.58
  C 117.16 67.87 118.37 64.75 119.95 61.61
  Q 120.39 60.73 120.41 61.71
  Q 120.74 77.49 121.16 84.23
  Q 122.24 101.21 108.89 111.13
  C 105.28 113.80 108.73 126.76 110.56 131.44
  Q 113.50 138.96 120.48 149.51
  C 123.34 153.82 125.57 158.32 128.00 162.90
  Q 128.34 163.54 128.63 162.88
  Q 133.31 152.02 125.26 145.51
  C 120.53 141.69 118.89 139.44 117.91 133.56
  Q 116.65 125.98 116.53 118.33
  A 0.31 0.31 0.0 0 1 117.14 118.25
  C 117.90 121.19 118.79 123.86 121.06 126.09
  C 125.96 130.89 138.98 139.14 131.22 147.47
  Q 130.86 147.85 131.01 148.35
  C 133.63 157.18 131.45 163.25 130.92 171.61
  C 129.93 187.27 128.88 201.90 135.60 216.64
  A 0.32 0.32 0.0 0 0 136.21 216.55
  Q 136.82 211.48 136.54 206.26
  C 135.79 192.26 135.31 177.43 137.10 163.51
  C 137.81 157.93 138.83 152.28 138.26 146.81
  C 137.64 140.99 136.31 129.67 132.18 125.24
  C 120.98 113.25 122.50 103.94 126.78 88.22
  Q 126.92 87.72 127.16 88.18
  Q 132.61 98.72 138.07 109.20
  C 141.46 115.69 140.04 120.83 136.71 127.15
  A 1.20 1.20 0.0 0 0 136.67 128.15
  Q 142.89 143.32 141.45 156.74
  C 140.60 164.66 139.67 172.49 139.75 180.43
  C 139.91 194.23 140.80 208.00 140.01 221.49
  Q 139.69 226.94 142.17 231.69
  Q 142.53 232.39 142.68 231.61
  C 146.68 210.25 146.41 187.75 147.35 166.06
  C 147.94 152.43 146.68 143.51 144.60 125.81
  Q 141.68 100.92 138.32 75.25
  A 3.83 3.81 17.7 0 0 137.12 72.94
  C 133.06 69.21 128.54 65.27 125.65 60.70
  C 117.45 47.74 116.29 32.97 114.02 16.98
  C 113.91 16.21 113.09 14.58 113.04 13.53
  Q 113.00 12.68 113.66 13.21
  C 120.68 18.72 129.68 24.64 134.79 30.59
  C 142.34 39.40 148.21 52.56 144.63 64.31
  C 143.62 67.63 139.87 71.25 140.49 75.17
  Q 141.59 82.05 142.79 88.89
  C 145.17 102.44 146.40 116.17 148.21 129.80
  Q 148.39 131.15 148.59 129.80
  C 150.70 115.94 152.19 101.16 151.13 87.19
  C 150.11 73.96 154.25 59.23 158.71 47.98
  C 164.26 33.96 169.49 23.55 165.54 8.09
  A 0.29 0.29 0.0 0 1 166.05 7.83
  C 190.00 36.27 191.61 74.26 158.29 96.54
  C 155.22 98.59 153.70 115.72 153.42 119.69
  C 151.81 142.32 152.93 164.58 153.85 187.18
  C 154.19 195.68 154.46 202.23 151.62 209.88
  C 146.34 224.05 144.10 243.14 150.75 256.77
  A 0.36 0.35 38.0 0 0 151.42 256.69
  C 155.19 237.61 159.18 220.61 158.47 200.06
  Q 157.32 167.20 157.74 150.00
  Q 158.03 137.91 159.60 128.83
  C 160.63 122.89 163.15 117.71 166.22 111.52
  C 170.35 103.20 174.80 95.35 181.69 88.78
  C 190.82 80.09 197.22 74.46 202.25 61.78
  A 0.18 0.17 51.2 0 1 202.58 61.82
  C 206.52 82.86 201.39 106.10 185.53 121.27
  C 182.04 124.61 173.56 125.63 168.67 128.74
  A 0.32 0.32 0.0 0 1 168.22 128.31
  C 169.82 125.74 171.23 123.51 171.44 120.33
  Q 171.92 112.87 173.13 105.59
  A 0.32 0.32 0.0 0 0 172.52 105.43
  C 169.40 113.61 164.84 122.14 163.30 128.81
  Q 161.08 138.41 161.40 154.22
  Q 161.41 154.72 161.69 154.30
  C 170.64 140.26 185.47 128.58 198.08 118.64
  C 207.50 111.22 212.98 96.47 214.76 85.00
  A 3.12 3.11 -57.4 0 0 214.28 82.79
  Q 207.70 72.88 206.32 60.93
  C 205.71 55.67 206.55 49.05 206.77 43.24
  Q 207.01 36.57 205.19 29.02
  A 0.50 0.50 0.0 0 1 206.01 28.53
  C 219.65 40.66 235.79 63.95 221.03 81.23
  C 219.25 83.33 217.39 84.87 216.69 87.69
  C 212.69 103.64 208.99 114.14 195.77 124.73
  Q 177.45 139.41 165.78 154.29
  C 161.48 159.77 161.15 166.98 161.48 174.77
  Q 162.41 196.29 162.77 217.75
  A 0.41 0.41 0.0 0 0 163.54 217.93
  L 173.73 197.54
  Q 173.94 197.12 173.67 196.74
  C 166.38 186.38 168.17 171.24 174.56 161.30
  Q 179.54 153.55 184.08 145.32
  A 0.14 0.14 0.0 0 1 184.35 145.38
  Q 185.19 158.79 186.23 172.24
  Q 186.83 180.08 183.15 188.22
  C 181.48 191.91 176.98 195.07 175.81 198.06
  Q 170.83 210.81 165.75 223.52
  C 159.93 238.10 156.94 249.62 156.28 264.18
  Q 156.25 264.75 156.82 264.75
  L 158.91 264.75
  Q 159.60 264.75 159.77 264.08
  C 166.07 239.56 179.01 216.87 193.76 196.01
  C 198.35 189.53 199.37 180.26 199.25 171.83
  Q 199.23 169.98 198.18 168.05
  C 189.47 152.03 199.32 142.33 209.37 130.47
  Q 210.34 129.32 210.46 130.82
  C 210.85 135.52 212.37 154.24 209.77 157.82
  Q 204.35 165.30 203.03 167.56
  C 200.35 172.18 201.68 177.49 201.25 182.06
  Q 200.87 186.13 200.29 190.18
  Q 200.20 190.79 200.69 190.41
  C 210.45 182.97 214.01 174.64 215.73 162.07
  C 218.77 139.83 219.13 118.78 235.45 101.90
  C 241.61 95.53 238.71 89.99 240.13 82.54
  C 241.63 74.71 245.58 69.09 252.48 64.99
  C 259.41 60.86 265.85 57.39 270.03 50.15
  A 0.47 0.47 0.0 0 1 270.90 50.50
  Q 267.76 62.97 264.42 75.59
  Q 262.20 83.96 256.40 89.97
  C 252.70 93.81 247.73 95.41 242.62 96.75
  Q 242.15 96.88 241.84 97.26
  C 234.70 106.21 227.52 115.60 224.89 126.47
  Q 220.64 144.10 218.76 162.16
  C 218.14 168.03 216.70 172.89 214.71 178.10
  A 0.28 0.28 0.0 0 0 215.18 178.40
  Q 224.83 168.49 228.71 154.98
  C 229.05 153.81 229.27 153.21 228.60 152.07
  C 222.54 141.68 229.55 128.74 237.36 120.80
  Q 237.66 120.50 237.66 120.92
  Q 237.84 130.25 238.35 139.49
  C 238.85 148.45 231.29 150.78 229.72 158.03
  C 224.33 182.86 199.67 189.05 188.73 209.73
  Q 188.40 210.37 189.01 209.99
  Q 195.24 206.05 201.61 202.39
  C 206.69 199.46 208.47 195.21 212.73 191.88
  C 217.41 188.21 221.54 186.72 227.92 186.01
  C 237.63 184.93 245.25 184.18 253.24 177.90
  A 0.33 0.33 0.0 0 1 253.73 178.33
  C 248.31 187.08 239.81 195.61 232.01 202.27
  C 226.64 206.87 219.54 209.17 212.56 207.70
  C 210.15 207.19 207.36 206.17 204.91 206.29
  C 184.87 207.27 168.37 248.70 164.23 264.05
  A 0.56 0.55 7.5 0 0 164.77 264.75
  L 167.52 264.75
  A 1.02 1.00 15.0 0 0 168.39 264.26
  C 175.81 251.87 180.68 238.90 189.53 227.32
  C 196.83 217.77 204.13 218.40 215.78 218.85
  Q 216.39 218.87 215.98 219.32
  C 209.32 226.48 202.98 232.41 193.38 235.28
  C 185.91 237.51 181.12 242.21 178.65 249.69
  Q 178.47 250.23 178.92 249.88
  Z"
/>
<path fill="#80ac39" d="
  M 201.48 26.11
  Q 197.46 21.29 200.03 15.47
  A 0.44 0.44 0.0 0 1 200.77 15.36
  C 202.65 17.64 206.18 24.40 202.55 26.32
  A 0.86 0.86 0.0 0 1 201.48 26.11
  Z"
/>
<path fill="#80ac39" d="
  M 142.26 32.13
  C 140.87 27.79 143.02 22.56 147.13 20.51
  A 0.50 0.49 -17.4 0 1 147.84 20.88
  Q 149.04 28.24 143.19 32.44
  A 0.61 0.61 0.0 0 1 142.26 32.13
  Z"
/>
<path fill="#80ac39" d="
  M 100.83 31.55
  C 97.20 28.95 99.99 24.04 102.36 21.84
  A 0.51 0.51 0.0 0 1 103.14 21.95
  Q 105.98 26.51 103.15 31.08
  A 1.61 1.61 0.0 0 1 100.83 31.55
  Z"
/>
<ellipse fill="#80ac39" cx="0.00" cy="0.00" transform="translate(90.68,31.92) rotate(120.1)" rx="4.95" ry="2.11"/>
<path fill="#80ac39" d="
  M 241.14 41.43
  C 235.44 41.85 232.12 35.00 231.47 30.36
  A 0.39 0.38 0.7 0 1 231.92 29.93
  Q 241.12 31.41 241.70 40.79
  Q 241.73 41.38 241.14 41.43
  Z"
/>
<path fill="#80ac39" d="
  M 192.22 45.30
  C 187.62 40.90 190.73 34.99 193.37 30.41
  A 0.77 0.77 0.0 0 1 194.70 30.39
  C 197.53 34.98 199.44 42.45 193.06 45.44
  Q 192.60 45.66 192.22 45.30
  Z"
/>
<path fill="#80ac39" d="
  M 102.78 41.78
  C 106.61 42.92 109.03 45.56 109.47 49.76
  Q 109.73 52.23 107.76 53.16
  A 0.98 0.97 -37.8 0 1 106.76 53.04
  Q 101.56 49.01 102.17 42.19
  Q 102.23 41.61 102.78 41.78
  Z"
/>
<path fill="#80ac39" d="
  M 84.13 52.44
  Q 80.88 47.72 83.99 42.74
  Q 84.29 42.25 84.65 42.69
  Q 88.24 47.13 85.99 52.27
  A 1.07 1.07 0.0 0 1 84.13 52.44
  Z"
/>
<path fill="#80ac39" d="
  M 240.60 59.06
  A 0.56 0.56 0.0 0 0 241.57 58.63
  L 241.21 53.77
  A 0.97 0.97 0.0 0 1 242.84 52.99
  Q 248.92 58.71 244.67 66.14
  Q 244.42 66.58 243.93 66.46
  Q 236.41 64.62 235.57 56.89
  Q 235.48 55.99 236.33 56.29
  Q 238.83 57.17 240.60 59.06
  Z"
/>
<path fill="#80ac39" d="
  M 48.52 58.88
  A 0.37 0.37 0.0 0 1 49.14 58.83
  C 52.82 63.52 54.58 70.73 49.60 75.28
  Q 49.26 75.59 48.89 75.31
  C 43.21 71.01 45.80 63.95 48.52 58.88
  Z"
/>
<path fill="#80ac39" d="
  M 34.89 61.84
  Q 35.76 61.76 35.54 62.61
  Q 33.49 70.44 25.30 69.23
  Q 24.55 69.12 24.90 68.45
  Q 28.02 62.41 34.89 61.84
  Z"
/>
<path fill="#80ac39" d="
  M 289.12 77.72
  Q 290.47 78.75 288.94 79.48
  Q 281.97 82.84 275.98 77.98
  A 0.46 0.45 47.6 0 1 276.01 77.25
  Q 282.75 72.85 289.12 77.72
  Z"
/>
<path fill="#80ac39" d="
  M 42.55 89.85
  A 0.75 0.75 0.0 0 1 41.65 89.29
  L 41.59 89.01
  A 4.84 1.89 76.8 0 1 42.32 83.87
  L 42.50 83.83
  A 4.84 1.89 76.8 0 1 45.44 88.11
  L 45.51 88.39
  A 0.75 0.75 0.0 0 1 44.95 89.29
  L 42.55 89.85
  Z"
/>
<path fill="#80ac39" d="
  M 68.02 88.93
  Q 69.13 90.11 67.56 90.52
  Q 61.14 92.21 56.83 87.08
  Q 56.47 86.65 57.00 86.45
  Q 63.42 84.02 68.02 88.93
  Z"
/>
<path fill="#80ac39" d="
  M 264.72 89.11
  Q 266.61 85.23 270.78 86.91
  A 0.48 0.48 0.0 0 1 270.96 87.67
  Q 268.83 90.10 265.56 90.35
  Q 264.06 90.47 264.72 89.11
  Z"
/>
<ellipse fill="#80ac39" cx="0.00" cy="0.00" transform="translate(277.39,88.37) rotate(5.2)" rx="4.06" ry="1.96"/>
<path fill="#80ac39" d="
  M 218.31 100.04
  C 217.94 95.97 225.71 92.48 228.69 90.57
  A 0.52 0.52 0.0 0 1 229.48 91.13
  C 228.31 95.68 224.43 101.73 218.82 100.61
  Q 218.35 100.52 218.31 100.04
  Z"
/>
<path fill="#80ac39" d="
  M 244.53 141.00
  C 252.50 127.15 263.43 122.90 277.23 116.76
  C 282.75 114.31 286.10 111.86 288.05 106.46
  A 0.52 0.52 0.0 0 1 289.06 106.65
  Q 288.91 111.02 287.53 115.31
  C 281.14 135.10 265.94 156.47 242.47 155.65
  C 239.09 155.53 234.47 162.67 232.44 165.22
  A 0.54 0.54 0.0 0 1 231.64 165.27
  L 231.31 164.94
  Q 231.02 164.65 231.26 164.31
  Q 236.89 156.49 238.77 149.01
  Q 242.73 133.30 246.13 123.99
  Q 246.29 123.54 246.15 123.07
  C 244.18 116.57 245.17 111.97 248.84 106.01
  Q 252.69 99.77 255.34 92.90
  Q 255.73 91.89 255.85 92.96
  C 257.26 105.29 260.12 116.05 248.87 123.59
  C 245.67 125.74 244.35 137.32 244.26 140.93
  Q 244.25 141.49 244.53 141.00
  Z"
/>
<ellipse fill="#80ac39" cx="0.00" cy="0.00" transform="translate(263.40,98.87) rotate(119.4)" rx="4.77" ry="1.96"/>
<ellipse fill="#80ac39" cx="0.00" cy="0.00" transform="translate(277.66,97.72) rotate(-16.7)" rx="4.85" ry="2.18"/>
<path fill="#80ac39" d="
  M 29.02 105.09
  C 23.38 106.54 18.52 104.29 16.00 99.42
  Q 15.66 98.76 16.39 98.62
  Q 24.65 97.04 29.49 103.78
  A 0.84 0.84 0.0 0 1 29.02 105.09
  Z"
/>
<ellipse fill="#80ac39" cx="0.00" cy="0.00" transform="translate(220.74,106.39) rotate(32.9)" rx="4.41" ry="2.34"/>
<ellipse fill="#80ac39" cx="0.00" cy="0.00" transform="translate(270.46,110.19) rotate(-17.3)" rx="4.52" ry="1.98"/>
<path fill="#80ac39" d="
  M 37.63 112.88
  C 42.27 111.88 47.00 114.61 49.44 118.64
  A 1.11 1.11 0.0 0 1 48.48 120.32
  Q 41.09 120.25 37.11 114.13
  Q 36.46 113.13 37.63 112.88
  Z"
/>
<path fill="#80ac39" d="
  M 257.22 120.61
  C 257.65 117.91 260.05 114.29 262.54 113.13
  Q 263.39 112.73 263.42 113.67
  Q 263.63 119.91 257.79 121.15
  Q 257.12 121.29 257.22 120.61
  Z"
/>
<path fill="#80ac39" d="
  M 205.78 126.92
  A 1.20 1.19 -82.4 0 1 204.72 125.52
  Q 205.68 120.02 210.69 117.73
  Q 211.31 117.45 211.42 118.12
  C 211.92 121.25 209.66 127.31 205.78 126.92
  Z"
/>
<ellipse fill="#80ac39" cx="0.00" cy="0.00" transform="translate(192.56,134.59) rotate(-29.0)" rx="5.18" ry="2.31"/>
<path fill="#80ac39" d="
  M 283.80 140.28
  Q 287.40 136.91 292.45 137.03
  A 0.70 0.69 12.0 0 1 293.08 137.99
  Q 290.55 143.93 284.10 141.72
  A 0.86 0.85 -57.0 0 1 283.80 140.28
  Z"
/>
<path fill="#80ac39" d="
  M 553.75 170.20
  L 553.75 139.75
  A 0.75 0.75 0.0 0 1 554.50 139.00
  L 563.34 139.00
  A 0.60 0.60 0.0 0 1 563.94 139.59
  L 564.31 189.97
  A 1.31 1.30 8.8 0 1 562.59 191.22
  Q 558.86 189.99 556.37 186.89
  Q 544.09 171.62 531.68 156.86
  A 0.59 0.58 -65.6 0 0 530.65 157.25
  L 531.18 190.30
  A 0.73 0.72 90.0 0 1 530.45 191.04
  L 524.09 190.91
  A 1.57 1.57 0.0 0 1 522.55 189.35
  L 522.08 139.75
  A 2.56 1.14 -27.3 0 1 523.41 138.09
  C 525.60 136.65 550.21 167.24 552.75 170.54
  A 0.56 0.56 0.0 0 0 553.75 170.20
  Z"
/>
<path fill="#80ac39" d="
  M 597.44 147.19
  C 606.29 136.59 620.24 135.58 630.20 146.01
  A 0.59 0.58 47.9 0 1 630.16 146.86
  L 625.82 150.55
  A 2.00 2.00 0.0 0 1 623.50 150.75
  C 608.01 141.54 592.79 158.69 601.70 172.88
  C 607.20 181.65 616.95 183.92 624.96 176.32
  A 0.83 0.83 0.0 0 1 625.89 176.18
  Q 629.10 177.78 631.30 180.60
  A 0.74 0.72 47.5 0 1 631.27 181.52
  C 626.58 186.81 619.40 191.19 612.10 189.98
  Q 601.46 188.21 595.72 179.50
  Q 584.57 162.60 597.44 147.19
  Z"
/>
<path fill="#80ac39" d="
  M 358.2560 189.7489
  A 25.50 24.34 82.8 0 1 330.9119 167.5006
  A 25.50 24.34 82.8 0 1 351.8640 139.1511
  A 25.50 24.34 82.8 0 1 379.2081 161.3994
  A 25.50 24.34 82.8 0 1 358.2560 189.7489
  Z
  M 355.2832 180.9391
  A 16.54 15.76 89.4 0 0 370.8691 164.2350
  A 16.54 15.76 89.4 0 0 354.9368 147.8609
  A 16.54 15.76 89.4 0 0 339.3509 164.5650
  A 16.54 15.76 89.4 0 0 355.2832 180.9391
  Z"
/>
<path fill="#80ac39" d="
  M 461.70 175.59
  Q 457.82 175.55 452.24 176.03
  C 448.16 176.37 449.02 170.88 449.85 168.51
  Q 450.02 168.03 450.53 168.02
  L 472.21 167.67
  Q 473.35 167.65 473.18 168.78
  C 471.29 181.20 462.63 193.14 448.73 191.44
  C 429.37 189.07 421.98 165.18 431.47 150.14
  C 439.40 137.57 458.05 135.14 467.81 147.83
  Q 468.17 148.30 467.75 148.72
  L 463.27 153.23
  Q 462.87 153.64 462.38 153.32
  C 453.68 147.71 444.69 145.52 438.30 155.63
  C 426.51 174.28 454.49 194.25 462.16 176.29
  Q 462.46 175.60 461.70 175.59
  Z"
/>
<rect fill="#80ac39" x="-4.61" y="-25.81" transform="translate(578.80,165.37) rotate(0.7)" width="9.22" height="51.62" rx="2.97"/>
<path fill="#80ac39" d="
  M 503.40 181.51
  L 487.76 181.49
  A 1.08 1.07 -77.4 0 0 486.79 182.11
  L 483.28 189.52
  Q 483.02 190.07 482.41 190.08
  L 474.33 190.32
  Q 473.64 190.34 473.90 189.70
  Q 483.76 165.37 493.58 141.08
  Q 493.82 140.50 494.25 140.12
  A 0.46 0.45 -32.0 0 1 494.97 140.28
  L 515.78 189.38
  A 0.58 0.58 0.0 0 1 515.27 190.18
  L 507.98 190.53
  A 0.83 0.83 0.0 0 1 507.17 190.01
  L 503.91 181.86
  A 0.56 0.55 78.9 0 0 503.40 181.51
  Z
  M 494.83 161.38
  A 0.50 0.50 0.0 0 0 493.90 161.38
  L 489.14 173.06
  A 0.50 0.50 0.0 0 0 489.60 173.75
  L 498.89 173.75
  A 0.50 0.50 0.0 0 0 499.36 173.07
  L 494.83 161.38
  Z"
/>
<path fill="#80ac39" d="
  M 387.92 189.32
  L 388.47 140.86
  Q 388.47 140.37 388.96 140.35
  C 402.97 139.77 418.27 140.15 419.74 157.72
  C 420.33 164.70 417.71 169.92 411.74 173.32
  A 1.00 1.00 0.0 0 0 411.44 174.80
  L 422.47 189.06
  Q 423.17 189.96 422.10 190.35
  C 416.61 192.32 413.97 190.05 410.41 185.70
  Q 404.81 178.85 398.57 172.93
  A 1.23 1.23 0.0 0 0 396.50 173.82
  L 396.50 189.56
  A 1.01 1.01 0.0 0 1 395.44 190.57
  L 388.82 190.28
  A 0.95 0.95 0.0 0 1 387.92 189.32
  Z
  M 396.76 151.62
  L 396.45 164.33
  A 1.83 1.83 0.0 0 0 398.23 166.21
  L 401.12 166.28
  A 9.46 7.93 1.4 0 0 410.77 158.58
  L 410.78 158.06
  A 9.46 7.93 1.4 0 0 401.52 149.90
  L 398.63 149.83
  A 1.83 1.83 0.0 0 0 396.76 151.62
  Z"
/>
<path fill="#80ac39" d="
  M 10.46 143.73
  C 10.67 147.97 9.16 154.36 4.09 155.17
  A 0.69 0.69 0.0 0 1 3.29 154.52
  Q 3.01 146.74 9.93 143.42
  Q 10.43 143.18 10.46 143.73
  Z"
/>
<path fill="#80ac39" d="
  M 297.98 143.43
  A 0.88 0.87 43.2 0 1 299.47 143.39
  C 302.06 147.36 303.78 154.60 298.62 157.67
  A 0.74 0.74 0.0 0 1 297.78 157.61
  C 292.82 153.58 295.35 148.06 297.98 143.43
  Z"
/>
<path fill="#80ac39" d="
  M 288.72 166.79
  A 0.90 0.89 -81.4 0 1 287.55 167.66
  Q 281.14 165.55 279.22 159.01
  A 0.76 0.76 0.0 0 1 279.97 158.03
  Q 288.57 158.24 288.72 166.79
  Z"
/>
<path fill="#80ac39" d="
  M 240.38 171.40
  Q 239.79 169.33 241.55 167.68
  Q 247.09 162.48 255.77 162.92
  Q 256.13 162.94 255.99 163.27
  C 253.65 168.77 247.37 174.63 240.98 172.07
  Q 240.52 171.88 240.38 171.40
  Z"
/>
<path fill="#80ac39" d="
  M 10.31 172.05
  Q 14.64 165.37 22.51 167.22
  A 0.76 0.76 0.0 0 1 22.89 168.48
  C 19.55 172.05 15.77 175.63 10.54 172.93
  Q 9.94 172.62 10.31 172.05
  Z"
/>
<ellipse fill="#80ac39" cx="0.00" cy="0.00" transform="translate(293.13,177.55) rotate(65.3)" rx="5.20" ry="2.06"/>
<ellipse fill="#80ac39" cx="0.00" cy="0.00" transform="translate(232.45,177.51) rotate(-23.7)" rx="5.51" ry="2.23"/>
<path fill="#80ac39" d="
  M 276.92 176.38
  Q 277.27 175.27 278.17 176.02
  Q 281.77 179.01 282.28 183.69
  A 2.20 2.19 60.5 0 1 281.85 185.24
  Q 280.50 187.02 279.00 185.49
  Q 275.26 181.70 276.92 176.38
  Z"
/>
<path fill="#80ac39" d="
  M 190.53 187.61
  C 190.44 183.99 193.68 180.60 196.54 178.94
  Q 197.04 178.65 197.05 179.23
  Q 197.21 185.83 191.24 188.09
  Q 190.55 188.35 190.53 187.61
  Z"
/>
<path fill="#80ac39" d="
  M 22.35 199.05
  C 17.34 200.26 14.67 193.24 14.89 189.48
  A 0.44 0.44 0.0 0 1 15.46 189.09
  Q 22.23 191.21 22.90 198.28
  A 0.73 0.72 -9.7 0 1 22.35 199.05
  Z"
/>
<path fill="#80ac39" d="
  M 273.52 199.73
  C 273.77 198.38 276.79 189.90 278.23 190.26
  A 0.63 0.62 -82.9 0 1 278.70 190.87
  Q 278.70 196.71 274.06 200.07
  Q 273.36 200.58 273.52 199.73
  Z"
/>
<ellipse fill="#80ac39" cx="0.00" cy="0.00" transform="translate(288.58,197.36) rotate(15.3)" rx="5.57" ry="2.31"/>
<path fill="#80ac39" d="
  M 36.47 198.29
  C 41.12 200.23 44.20 203.81 43.42 209.28
  A 1.36 1.36 0.0 0 1 41.47 210.31
  Q 34.35 206.80 35.75 198.68
  Q 35.87 198.03 36.47 198.29
  Z"
/>
<path fill="#80ac39" d="
  M 21.88 204.92
  C 18.23 210.39 11.41 206.11 7.90 202.61
  Q 7.57 202.28 7.95 202.01
  C 12.18 198.93 18.04 201.46 21.76 204.23
  Q 22.14 204.52 21.88 204.92
  Z"
/>
<ellipse fill="#80ac39" cx="0.00" cy="0.00" transform="translate(63.03,210.72) rotate(7.0)" rx="3.60" ry="1.84"/>
<ellipse fill="#80ac39" cx="0.00" cy="0.00" transform="translate(54.12,213.94) rotate(24.9)" rx="4.25" ry="2.02"/>
<ellipse fill="#80ac39" cx="0.00" cy="0.00" transform="translate(71.29,213.73) rotate(-6.1)" rx="5.01" ry="2.31"/>
<path fill="#80ac39" d="
  M 231.84 214.31
  Q 232.45 214.46 232.24 215.06
  C 230.69 219.63 225.29 223.06 220.75 220.02
  Q 220.32 219.73 220.55 219.26
  Q 224.10 212.31 231.84 214.31
  Z"
/>
<ellipse fill="#80ac39" cx="0.00" cy="0.00" transform="translate(246.06,224.16) rotate(114.6)" rx="4.83" ry="1.98"/>
<path fill="#80ac39" d="
  M 83.15 222.57
  C 91.68 219.79 99.22 223.31 103.97 230.49
  Q 104.28 230.96 103.79 231.24
  C 95.19 236.02 88.18 229.03 83.02 223.04
  A 0.29 0.29 0.0 0 1 83.15 222.57
  Z"
/>
<ellipse fill="#80ac39" cx="0.00" cy="0.00" transform="translate(60.06,224.22) rotate(17.1)" rx="5.02" ry="2.05"/>
<path fill="#80ac39" d="
  M 70.49 223.55
  C 77.20 227.29 83.57 232.37 81.89 239.92
  A 0.92 0.92 0.0 0 1 80.32 240.34
  Q 73.63 233.11 70.10 223.89
  A 0.28 0.27 -85.9 0 1 70.49 223.55
  Z"
/>
<path fill="#80ac39" d="
  M 235.36 232.36
  Q 235.87 231.74 236.21 232.46
  Q 239.72 239.94 233.75 245.28
  A 1.25 1.25 0.0 0 1 231.67 244.47
  Q 230.98 237.65 235.36 232.36
  Z"
/>
<path fill="#80ac39" d="
  M 247.49 234.65
  Q 245.28 238.29 241.08 237.00
  A 0.64 0.64 0.0 0 1 240.82 235.93
  Q 243.10 233.70 246.30 232.98
  Q 248.85 232.41 247.49 234.65
  Z"
/>
<ellipse fill="#80ac39" cx="0.00" cy="0.00" transform="translate(70.98,235.30) rotate(32.5)" rx="3.17" ry="1.66"/>
<path fill="#80ac39" d="
  M 107.12 235.18
  A 0.70 0.69 -51.8 0 1 108.32 235.03
  C 111.42 239.17 114.21 245.88 109.44 250.22
  Q 109.09 250.54 108.72 250.25
  C 103.73 246.38 104.94 240.32 107.12 235.18
  Z"
/>
<path fill="#80ac39" d="
  M 218.57 248.93
  C 218.65 244.67 222.60 240.97 226.11 239.25
  Q 226.69 238.96 226.64 239.61
  Q 226.00 246.89 219.18 249.36
  Q 218.56 249.58 218.57 248.93
  Z"
/>
<ellipse fill="#80ac39" cx="0.00" cy="0.00" transform="translate(94.87,244.66) rotate(40.7)" rx="4.42" ry="2.25"/>
<ellipse fill="#80ac39" cx="0.00" cy="0.00" transform="translate(120.19,246.07) rotate(117.2)" rx="3.93" ry="2.11"/>
<ellipse fill="#80ac39" cx="0.00" cy="0.00" transform="translate(203.97,252.78) rotate(129.5)" rx="4.23" ry="1.89"/>
<path fill="#80ac39" d="
  M 124.12 253.66
  C 126.43 254.17 129.32 255.79 129.15 258.49
  A 1.40 1.39 -69.1 0 1 126.90 259.50
  Q 124.20 257.39 123.66 254.10
  A 0.39 0.38 -88.5 0 1 124.12 253.66
  Z"
/>
</svg>
