<?xml version="1.0" encoding="UTF-8" standalone="no"?>
<!DOCTYPE svg PUBLIC "-//W3C//DTD SVG 1.1//EN" "http://www.w3.org/Graphics/SVG/1.1/DTD/svg11.dtd">
<svg xmlns="http://www.w3.org/2000/svg" version="1.1" viewBox="0.00 0.00 1587.00 894.00">
<g stroke-width="2.00" fill="none" stroke-linecap="butt">
<path stroke="#5dbcc3" vector-effect="non-scaling-stroke" d="
  M 1095.16 278.45
  Q 1090.38 284.32 1092.39 291.31
  Q 1092.53 291.79 1092.96 292.04
  Q 1098.70 295.43 1103.23 291.49
  C 1105.41 289.60 1110.33 287.43 1113.12 287.28
  Q 1116.16 287.11 1119.22 287.31
  A 1.50 1.46 -22.6 0 1 1120.08 287.65
  C 1122.83 289.92 1126.12 289.88 1128.57 291.18
  C 1134.54 294.33 1138.93 298.82 1145.81 303.52
  A 1.47 1.41 10.2 0 1 1146.39 304.32
  C 1146.69 305.39 1146.88 305.08 1147.92 305.74
  C 1150.25 307.23 1152.58 310.12 1154.50 312.15
  A 2.25 2.23 -11.7 0 0 1155.38 312.72
  Q 1156.50 313.12 1156.50 314.24
  A 1.00 0.99 18.9 0 0 1156.89 315.03
  Q 1159.31 316.89 1161.17 319.24
  Q 1161.19 319.27 1161.23 319.27
  Q 1161.38 319.25 1161.54 319.24
  Q 1161.78 319.22 1161.93 319.41
  Q 1165.79 324.05 1170.00 328.38
  C 1171.49 329.91 1172.52 331.99 1174.21 333.57
  C 1180.45 339.40 1185.59 346.86 1189.41 349.84
  Q 1191.93 351.80 1192.94 353.44
  Q 1193.19 353.85 1193.61 354.09
  C 1195.42 355.12 1196.18 357.10 1197.55 358.27
  Q 1203.06 362.97 1208.14 368.12
  Q 1211.29 371.31 1214.83 373.83
  C 1219.22 376.94 1224.30 382.00 1230.18 383.01
  Q 1234.17 383.69 1237.94 387.05
  Q 1240.91 389.71 1245.87 391.04
  C 1248.88 391.86 1251.14 393.72 1253.50 394.49
  C 1262.78 397.51 1271.34 400.67 1281.61 401.94
  C 1281.93 401.98 1281.97 402.09 1282.04 402.37
  Q 1282.13 402.75 1282.51 402.74
  Q 1285.81 402.66 1292.73 403.51
  C 1299.02 404.29 1307.94 402.97 1314.06 402.40
  C 1320.96 401.76 1326.96 401.16 1334.50 399.96
  C 1339.51 399.16 1344.30 400.43 1349.09 398.74
  C 1350.69 398.17 1352.44 398.54 1354.03 397.31
  Q 1354.43 397.01 1354.93 396.93
  L 1364.34 395.55
  A 3.96 3.84 45.9 0 1 1365.64 395.59
  Q 1366.91 395.84 1368.00 395.10
  Q 1368.38 394.85 1368.84 394.83
  Q 1372.42 394.71 1375.55 393.25
  Q 1379.30 391.49 1380.82 391.00
  C 1384.74 389.71 1389.49 386.59 1393.69 386.86
  Q 1399.70 387.25 1405.72 387.96
  A 1.89 1.82 -20.3 0 1 1406.70 388.39
  Q 1408.57 390.02 1411.02 389.76
  A 1.63 1.54 54.2 0 1 1411.96 389.94
  Q 1415.82 391.96 1419.28 394.60
  A 2.39 2.32 69.0 0 0 1420.21 395.03
  C 1421.71 395.34 1422.61 396.75 1423.55 397.30
  C 1427.84 399.80 1430.99 401.29 1436.79 404.30
  Q 1440.41 406.18 1444.29 407.50
  C 1449.55 409.28 1454.26 412.19 1459.33 414.25
  C 1464.17 416.20 1467.13 418.81 1473.15 418.29
  C 1479.25 417.77 1483.35 411.98 1485.40 406.69
  C 1487.30 401.79 1490.38 397.26 1492.52 392.29
  C 1494.43 387.88 1496.68 384.49 1497.86 379.69
  Q 1498.86 375.66 1499.97 373.18
  C 1504.18 363.79 1505.09 356.64 1507.36 347.95
  C 1508.83 342.30 1509.40 337.20 1510.11 331.50
  A 0.62 0.62 0.0 0 0 1508.98 331.09
  Q 1508.21 332.26 1507.15 331.19"
/>
<path stroke="#33676b" vector-effect="non-scaling-stroke" d="
  M 1507.15 331.19
  C 1517.38 283.22 1506.27 234.91 1475.44 196.32
  C 1450.99 165.72 1421.09 148.83 1383.51 141.19
  C 1350.22 134.42 1313.59 141.65 1283.84 157.03
  C 1277.34 160.39 1270.96 165.31 1264.66 169.66
  C 1243.28 184.42 1226.78 203.73 1215.01 226.95
  C 1214.27 228.41 1212.96 229.36 1211.51 229.77
  C 1186.11 237.01 1157.28 240.46 1130.21 245.05
  C 1117.20 247.26 1095.16 252.49 1089.92 266.00
  Q 1086.99 273.58 1095.16 278.45"
/>
<path stroke="#2a5558" vector-effect="non-scaling-stroke" d="
  M 1507.15 331.19
  C 1502.48 354.08 1490.70 377.56 1480.54 398.06
  C 1476.52 406.18 1467.87 400.68 1461.79 398.03
  Q 1433.64 385.77 1408.16 368.60
  C 1405.35 366.71 1403.03 366.25 1399.61 367.42
  Q 1351.97 383.82 1301.57 386.41
  C 1272.28 387.91 1241.97 376.63 1219.23 358.92
  C 1193.66 338.99 1175.83 316.54 1154.67 294.41
  C 1148.81 288.28 1141.46 281.20 1135.95 276.80
  C 1130.59 272.51 1117.01 266.03 1109.55 269.55
  C 1105.32 271.55 1102.90 275.43 1099.05 277.49
  Q 1096.99 278.60 1095.16 278.45"
/>
<path stroke="#5dbcc3" vector-effect="non-scaling-stroke" d="
  M 170.82 486.09
  L 169.44 486.60
  A 0.67 0.67 0.0 0 0 169.00 487.23
  L 169.00 496.01
  A 0.99 0.97 72.7 0 1 168.59 496.81
  C 165.64 498.88 166.96 524.05 166.86 527.93
  C 166.35 548.56 167.97 569.14 172.95 589.20
  Q 175.42 599.14 177.98 609.06
  C 178.87 612.52 180.71 615.56 181.97 619.02
  C 183.14 622.22 185.90 624.83 187.51 627.94
  C 188.20 629.27 189.38 630.21 189.99 631.71
  C 191.49 635.43 194.39 639.64 197.07 642.62
  C 201.25 647.26 204.83 652.51 209.25 656.54
  Q 215.94 662.62 222.98 668.29
  C 223.83 668.98 224.17 670.14 225.43 670.57
  Q 225.91 670.73 226.30 671.05
  Q 232.34 676.05 241.50 678.03
  Q 248.30 679.50 257.46 683.65
  C 259.65 684.64 261.51 684.35 263.78 685.19
  C 269.38 687.26 276.59 688.48 282.50 688.80
  Q 294.50 689.44 306.52 689.47
  C 308.29 689.47 309.53 688.77 311.40 688.68
  Q 313.74 688.57 315.03 688.28
  C 318.63 687.46 322.74 687.58 325.97 687.04
  C 330.83 686.21 335.78 685.69 340.47 684.22
  C 345.08 682.78 349.20 681.52 353.98 679.48
  Q 357.49 677.98 361.10 676.74
  C 363.66 675.86 365.80 674.06 368.48 673.07
  Q 371.08 672.12 372.82 670.92
  C 376.03 668.72 379.97 667.16 382.71 664.87
  C 386.98 661.29 390.86 656.65 394.54 653.15
  C 402.04 646.03 406.25 639.69 411.79 630.02
  C 413.41 627.19 414.76 623.90 416.39 620.84
  C 420.48 613.16 422.08 603.55 423.28 595.01
  C 423.88 590.71 424.45 584.78 421.01 581.72
  Q 420.59 581.35 420.71 580.79
  L 421.94 575.15
  Q 422.06 574.62 421.53 574.50
  Q 421.21 574.42 420.82 574.79"
/>
<path stroke="#b3e7a0" vector-effect="non-scaling-stroke" d="
  M 420.82 574.79
  L 422.25 561.79
  Q 422.32 561.25 421.77 561.25
  L 359.26 561.25
  A 0.75 0.75 0.0 0 0 358.51 561.96
  C 356.24 602.06 331.24 618.19 292.94 616.03
  C 259.62 614.15 244.10 592.31 238.53 561.99
  C 234.33 539.09 234.65 514.80 235.17 491.26"
/>
<path stroke="#5dbcc3" vector-effect="non-scaling-stroke" d="
  M 235.17 491.26
  C 236.21 491.39 236.74 491.05 236.81 489.98
  C 237.16 484.25 235.99 479.57 238.59 474.25
  Q 238.81 473.80 238.59 473.34
  C 237.45 470.96 239.05 469.78 239.63 468.09
  Q 244.44 454.09 246.48 450.49
  Q 253.04 438.90 263.35 430.49
  A 1.12 1.12 0.0 0 1 264.26 430.25
  Q 264.78 430.33 265.08 430.03
  A 0.98 0.01 -46.3 0 1 265.75 429.34
  C 270.37 426.43 275.22 425.67 279.94 423.24
  C 287.11 419.53 292.37 420.36 300.40 420.11
  C 303.72 420.01 307.26 420.73 310.76 420.67
  C 312.92 420.63 314.22 421.62 316.27 421.96
  C 322.81 423.03 328.53 425.05 334.29 428.28
  C 339.47 431.18 343.49 435.91 347.31 440.50
  C 351.83 445.92 354.03 453.38 356.10 460.01
  C 359.37 470.47 362.11 477.17 373.81 477.27
  Q 381.95 477.35 399.33 477.21
  C 411.72 477.12 421.37 475.95 420.59 461.13
  A 0.12 0.09 -35.8 0 1 420.61 461.07
  Q 420.67 460.97 420.76 460.86
  Q 420.93 460.65 420.67 460.57
  Q 420.12 460.40 420.24 460.00"
/>
<path stroke="#b3e7a0" vector-effect="non-scaling-stroke" d="
  M 420.24 460.00
  L 422.14 459.95
  Q 422.70 459.94 422.65 459.38
  C 417.45 401.30 381.30 360.51 322.51 352.46
  C 232.27 340.11 175.30 399.03 170.82 486.09"
/>
<path stroke="#aad48d" vector-effect="non-scaling-stroke" d="
  M 420.24 460.00
  L 359.99 460.01
  A 1.15 1.15 0.0 0 1 358.84 458.93
  C 356.31 417.52 331.16 399.78 290.69 403.73
  C 245.05 408.19 235.96 454.11 235.17 491.26"
/>
<path stroke="#aad48d" vector-effect="non-scaling-stroke" d="
  M 420.82 574.79
  C 409.55 645.07 346.58 673.99 281.43 667.70
  C 230.16 662.75 192.52 628.37 178.50 579.75
  C 169.69 549.19 169.85 517.78 170.82 486.09"
/>
<path stroke="#5dbcc3" vector-effect="non-scaling-stroke" d="
  M 456.17 503.46
  Q 455.82 504.93 458.19 504.97
  Q 458.90 504.98 458.29 505.34
  L 458.02 505.51
  Q 457.51 505.81 457.81 506.32
  Q 458.99 508.34 458.14 510.65
  Q 457.97 511.12 458.09 511.61
  C 460.08 520.23 467.65 520.83 475.12 521.38
  A 4.11 3.89 55.3 0 1 476.12 521.59
  Q 477.34 522.02 478.55 521.35
  Q 478.98 521.12 479.46 521.19
  C 482.42 521.63 485.48 521.13 488.21 521.35
  C 496.04 521.99 503.08 521.57 510.73 519.70
  C 516.41 518.31 520.37 509.53 523.88 505.65
  Q 524.92 504.52 526.03 502.45
  C 528.20 498.41 537.11 495.90 542.32 494.58
  C 547.60 493.25 555.32 494.13 561.41 494.22
  Q 561.91 494.22 562.33 494.50
  Q 564.54 495.99 566.62 497.56
  Q 566.79 497.69 571.08 500.57
  C 575.51 503.54 577.96 508.04 580.73 512.97
  C 582.45 516.02 582.84 518.96 583.19 522.32
  Q 583.21 522.54 583.41 522.43
  L 583.94 522.15
  Q 584.23 522.00 584.23 521.66
  L 584.30 512.23"
/>
<path stroke="#b3e7a0" vector-effect="non-scaling-stroke" d="
  M 584.30 512.23
  L 584.42 523.13
  Q 584.42 523.66 583.89 523.67
  Q 565.04 523.89 546.19 524.26
  C 497.16 525.23 448.54 546.25 451.07 604.00"
/>
<path stroke="#5dbcc3" vector-effect="non-scaling-stroke" d="
  M 451.07 604.00
  Q 449.06 609.46 448.84 613.48
  C 447.57 636.05 456.47 654.93 473.81 669.09
  Q 483.00 676.60 491.69 680.54
  C 495.28 682.17 499.84 683.34 503.95 684.76
  C 506.32 685.58 508.62 685.45 511.15 686.14
  C 519.16 688.31 528.03 688.39 536.28 687.98
  C 540.44 687.77 544.66 686.42 548.94 685.65
  C 553.99 684.74 561.45 681.90 565.87 679.65
  C 569.88 677.61 574.62 674.59 579.13 674.19
  Q 583.00 673.85 584.49 674.24
  C 589.19 675.50 593.25 680.38 597.82 682.10
  Q 601.93 683.64 606.25 683.72
  Q 618.72 683.94 636.00 683.74
  Q 637.98 683.72 642.91 682.41
  C 647.62 681.17 649.56 682.62 651.93 677.07
  Q 652.59 675.52 653.27 673.98
  C 654.45 671.30 653.79 667.30 654.15 664.24"
/>
<path stroke="#b3e7a0" vector-effect="non-scaling-stroke" d="
  M 654.15 664.24
  C 655.84 663.97 655.36 661.17 654.80 659.91
  C 647.67 643.84 646.16 627.30 646.12 609.25
  Q 646.01 560.80 645.98 512.35
  C 645.98 504.21 645.42 497.65 643.86 490.33
  C 638.21 463.69 617.66 443.52 592.26 435.74
  C 551.66 423.32 494.47 430.51 467.72 467.68
  Q 456.16 483.74 456.17 503.46"
/>
<path stroke="#aad48d" vector-effect="non-scaling-stroke" d="
  M 654.15 664.24
  L 593.60 664.23
  Q 593.10 664.23 592.89 663.78
  Q 588.46 654.49 587.11 644.28
  Q 587.03 643.69 586.63 644.13
  C 567.95 664.69 542.63 671.01 515.50 667.53
  C 481.69 663.18 453.39 639.71 451.07 604.00"
/>
<path stroke="#aad48d" vector-effect="non-scaling-stroke" d="
  M 584.30 512.23
  C 585.20 484.51 567.19 472.12 541.00 476.76
  Q 518.80 480.70 517.56 502.63
  Q 517.49 503.77 516.35 503.77
  C 500.46 503.76 484.82 503.49 469.10 503.77
  Q 462.71 503.88 456.17 503.46"
/>
<path stroke="#5dbcc3" vector-effect="non-scaling-stroke" d="
  M 696.57 752.51
  Q 697.64 754.16 693.60 753.95
  A 0.35 0.34 -31.5 0 0 693.44 754.61
  L 694.81 755.19
  Q 695.18 755.36 695.34 755.73
  C 697.43 760.69 700.93 767.04 707.32 766.93
  Q 727.19 766.56 732.50 767.07
  C 743.21 768.08 749.73 765.27 752.18 754.19
  Q 752.22 754.00 752.02 754.00
  Q 751.89 754.00 751.74 754.00
  A 0.25 0.09 -26.1 0 1 752.00 753.73
  L 754.91 753.24
  A 1.22 1.20 85.3 0 0 755.91 752.04
  L 755.94 675.73
  A 1.12 1.11 63.9 0 1 756.17 675.05
  L 757.49 673.26
  Q 757.81 672.83 758.34 672.71
  Q 759.15 672.52 759.37 671.76
  Q 759.54 671.17 760.13 671.31
  Q 760.86 671.49 761.35 671.93
  Q 761.70 672.25 762.17 672.28
  Q 763.09 672.35 763.55 672.96
  Q 763.77 673.26 764.13 673.37
  L 784.44 679.34
  Q 784.93 679.48 785.27 679.87
  Q 788.60 683.65 793.52 682.60
  Q 793.99 682.49 794.44 682.68
  Q 799.64 684.79 805.27 684.75
  C 807.53 684.74 809.81 685.60 812.33 684.85
  C 817.07 683.44 822.93 684.07 826.23 683.41
  Q 835.57 681.55 843.94 677.19
  C 848.78 674.67 853.34 672.42 858.07 670.08
  C 859.35 669.45 860.48 667.35 861.66 666.34
  C 868.58 660.36 875.41 653.36 880.01 645.40
  C 883.23 639.82 886.62 634.92 888.69 629.03
  Q 890.44 624.09 891.84 619.03
  C 892.39 617.04 893.86 614.52 893.94 612.04
  Q 894.06 608.19 894.21 607.52
  Q 894.98 603.88 896.24 600.35
  Q 896.42 599.84 896.20 599.35
  Q 895.45 597.73 896.65 596.29
  Q 896.99 595.87 896.91 595.34
  C 896.39 592.13 897.71 588.96 898.02 586.61
  C 898.59 582.42 899.89 578.07 899.96 573.86
  C 900.03 570.33 901.04 567.11 900.89 563.80
  Q 900.41 552.96 900.50 542.11
  C 900.51 541.27 901.10 540.39 901.04 539.75
  Q 900.66 535.20 900.73 530.87
  A 0.62 0.62 0.0 0 0 899.62 530.49
  L 899.23 531.02"
/>
<path stroke="#b3e7a0" vector-effect="non-scaling-stroke" d="
  M 899.23 531.02
  C 896.41 486.31 875.83 439.53 826.49 431.55
  C 798.21 426.97 771.74 434.00 752.85 456.21
  Q 752.28 456.88 752.20 456.00
  L 750.12 435.00
  A 0.56 0.55 87.1 0 0 749.57 434.50
  L 694.25 434.50
  Q 693.25 434.50 693.25 435.50
  L 693.25 751.83
  Q 693.25 752.41 693.84 752.43
  L 696.57 752.51"
/>
<path stroke="#aad48d" vector-effect="non-scaling-stroke" d="
  M 899.23 531.02
  C 902.90 575.23 894.97 632.71 852.44 657.82
  C 835.88 667.61 815.24 670.37 796.44 667.35
  Q 771.86 663.40 755.15 645.08
  Q 754.78 644.67 754.77 645.23
  L 754.43 752.01
  A 0.51 0.50 -89.4 0 1 753.93 752.51
  L 696.57 752.51"
/>
<path stroke="#5dbcc3" vector-effect="non-scaling-stroke" d="
  M 938.02 457.75
  Q 937.44 457.92 937.43 458.44
  C 937.15 467.11 937.84 476.46 937.10 485.64
  C 936.60 491.77 937.37 498.00 937.29 504.37
  C 937.11 518.02 937.32 532.55 937.34 545.42
  C 937.41 584.36 936.89 610.46 937.25 632.84
  Q 937.36 639.12 937.08 646.66
  C 936.78 654.76 937.54 663.71 937.47 670.78
  Q 937.17 704.31 937.20 715.50
  C 937.21 717.41 936.63 718.74 936.82 720.41
  Q 937.95 729.86 937.39 737.68
  C 937.01 742.94 937.26 747.65 936.64 752.17
  C 936.15 755.71 938.22 760.98 939.28 763.76
  C 941.63 769.93 946.68 769.45 952.05 770.68
  Q 955.36 771.44 958.83 770.54
  A 1.91 1.89 45.3 0 1 959.79 770.55
  C 962.79 771.34 965.34 770.00 967.90 770.04
  C 976.09 770.15 989.96 772.82 996.10 766.69
  C 998.02 764.76 998.58 761.91 1000.07 759.46
  Q 1000.33 759.03 1000.28 758.54
  Q 999.99 755.56 1000.78 752.79
  C 1001.31 750.90 1000.83 749.45 1000.83 747.82
  Q 1000.98 712.36 1001.03 676.94
  Q 1001.04 676.47 1001.40 676.17
  C 1007.41 671.34 1009.88 675.03 1015.66 676.99
  C 1020.63 678.68 1025.49 680.66 1030.44 682.42
  C 1031.45 682.78 1032.80 682.71 1033.83 683.64
  Q 1034.16 683.93 1034.58 684.04
  Q 1040.52 685.59 1046.63 685.22
  A 0.76 0.75 70.7 0 1 1047.28 685.54
  C 1048.52 687.33 1062.41 686.07 1065.02 686.15
  C 1070.16 686.31 1074.17 685.42 1078.92 684.46
  Q 1078.94 684.46 1078.95 684.43
  Q 1079.00 684.33 1079.00 684.16
  Q 1079.00 683.90 1079.24 683.81
  C 1085.09 681.70 1091.31 679.99 1096.52 676.92
  C 1102.57 673.35 1108.44 669.34 1112.73 664.20
  C 1114.39 662.20 1116.75 661.24 1118.42 658.94
  C 1122.01 653.99 1125.85 649.35 1128.65 644.05
  Q 1133.65 634.57 1137.79 624.68
  C 1138.33 623.37 1138.14 621.81 1139.31 620.50
  A 1.60 1.54 -22.5 0 0 1139.69 619.63
  Q 1140.22 614.37 1142.05 609.47
  Q 1142.48 608.34 1142.73 607.01
  C 1143.15 604.85 1143.94 602.88 1144.14 600.78
  Q 1145.05 590.83 1145.87 580.85
  C 1146.13 577.76 1145.11 574.81 1145.31 571.43
  C 1145.48 568.75 1147.31 566.72 1146.07 563.26
  Q 1145.84 562.62 1145.94 563.30
  Q 1146.38 566.23 1145.16 568.89
  Q 1144.93 569.39 1144.96 569.94
  C 1145.16 573.78 1144.29 577.35 1143.84 581.18
  Q 1143.55 583.60 1142.77 585.97
  Q 1142.69 586.21 1142.46 586.08
  Q 1142.21 585.94 1141.93 585.91"
/>
<path stroke="#b3e7a0" vector-effect="non-scaling-stroke" d="
  M 1141.93 585.91
  C 1152.41 521.41 1137.59 424.65 1048.99 430.51
  Q 1017.69 432.58 997.80 456.26
  A 0.43 0.43 0.0 0 1 997.04 456.02
  L 995.06 435.01
  Q 995.02 434.51 994.51 434.51
  L 938.47 434.48
  A 0.29 0.29 0.0 0 0 938.18 434.77
  L 938.02 457.75"
/>
<path stroke="#aad48d" vector-effect="non-scaling-stroke" d="
  M 1141.93 585.91
  C 1134.68 625.64 1110.29 662.75 1067.27 667.86
  C 1041.83 670.89 1017.66 664.17 1000.00 645.04
  Q 999.50 644.50 999.50 645.24
  L 999.50 751.75
  A 0.75 0.75 0.0 0 1 998.75 752.50
  L 939.01 752.50
  Q 938.11 752.50 938.11 751.61
  L 938.02 457.75"
/>
<path stroke="#5dbcc3" vector-effect="non-scaling-stroke" d="
  M 1165.18 456.76
  Q 1164.75 456.74 1164.47 457.53
  Q 1164.25 458.16 1164.25 457.50
  L 1164.25 457.03
  Q 1164.25 456.70 1163.98 456.90
  Q 1163.26 457.43 1163.52 458.40
  A 1.30 1.25 52.6 0 1 1163.41 459.36
  C 1160.94 463.83 1163.74 469.89 1165.32 474.29
  C 1167.35 479.92 1168.90 485.67 1171.15 491.29
  C 1173.72 497.73 1175.51 504.03 1177.93 510.32
  Q 1178.08 510.71 1178.35 511.00
  A 2.51 2.32 -77.3 0 1 1178.83 511.83
  Q 1184.88 529.41 1191.18 546.90
  C 1199.29 569.44 1206.74 592.29 1214.54 614.95
  Q 1215.83 618.68 1217.12 620.55
  C 1217.97 621.76 1217.63 623.23 1218.10 624.60
  Q 1220.25 630.80 1222.58 636.95
  Q 1223.65 639.77 1224.97 644.72
  C 1227.26 653.26 1230.68 661.19 1233.52 670.44
  Q 1233.64 670.83 1233.51 671.23
  Q 1233.22 672.09 1233.19 673.02
  A 0.20 0.20 0.0 0 0 1233.58 673.10
  L 1236.06 666.14
  A 0.07 0.07 0.0 0 1 1236.20 666.18
  L 1235.42 670.70"
/>
<path stroke="#b3e7a0" vector-effect="non-scaling-stroke" d="
  M 1235.42 670.70
  C 1230.37 686.33 1225.27 700.76 1207.43 704.84
  Q 1195.92 707.47 1183.49 706.09
  A 1.69 1.69 0.0 0 0 1181.61 707.88
  Q 1182.27 718.58 1181.72 729.75"
/>
<path stroke="#5dbcc3" vector-effect="non-scaling-stroke" d="
  M 1181.72 729.75
  Q 1179.16 739.72 1180.21 750.20
  C 1180.76 755.74 1179.83 760.50 1182.82 766.07
  Q 1182.90 766.22 1182.74 766.25
  Q 1182.53 766.29 1182.61 766.41
  C 1185.27 770.81 1192.76 773.97 1197.69 774.26
  C 1202.53 774.56 1207.31 775.90 1212.28 775.11
  C 1221.85 773.60 1230.79 772.12 1240.28 768.81
  Q 1242.37 768.08 1244.65 766.27
  C 1247.14 764.29 1249.52 763.27 1252.01 760.98
  C 1254.07 759.07 1256.87 758.68 1258.69 756.96
  Q 1267.87 748.25 1273.87 737.10
  Q 1274.90 735.19 1276.41 733.00
  C 1278.86 729.45 1279.45 725.59 1281.54 722.01
  Q 1284.61 716.76 1285.02 710.68
  A 1.81 1.77 -26.6 0 1 1285.33 709.78
  C 1287.28 707.01 1287.89 705.50 1288.41 701.71
  C 1288.79 698.93 1290.58 696.30 1291.34 694.03
  Q 1295.67 681.08 1300.61 668.34
  A 2.13 2.12 -37.5 0 0 1300.74 667.37
  Q 1300.64 666.51 1300.99 665.73
  Q 1301.26 665.11 1301.28 665.79
  Q 1301.39 669.36 1299.44 672.42
  A 0.17 0.17 0.0 0 0 1299.71 672.62
  Q 1302.03 669.87 1301.98 666.51
  A 2.01 2.01 0.0 0 1 1302.27 665.47
  Q 1303.69 663.15 1303.21 660.40
  Q 1303.12 659.89 1303.32 659.41
  C 1309.52 645.01 1313.12 630.48 1318.48 617.22
  C 1320.03 613.39 1321.77 608.70 1322.66 604.82
  Q 1325.63 591.86 1330.66 579.58
  Q 1330.68 579.54 1331.17 577.52
  Q 1331.50 576.17 1332.83 574.55
  Q 1335.99 570.70 1336.76 564.82
  Q 1337.09 562.36 1338.04 560.36
  C 1339.55 557.14 1340.22 553.75 1341.74 550.59
  C 1342.51 548.96 1342.15 547.11 1342.74 545.53
  Q 1344.00 542.17 1345.51 538.90
  C 1347.00 535.68 1347.73 531.48 1350.00 528.10
  Q 1350.28 527.68 1350.25 527.18
  Q 1350.18 526.29 1350.48 525.45
  C 1353.05 518.15 1356.33 510.72 1358.06 503.19
  C 1358.99 499.16 1360.94 495.58 1362.12 491.53
  Q 1362.15 491.44 1362.23 491.39
  L 1362.61 491.17
  A 0.30 0.30 0.0 0 0 1362.76 490.93
  Q 1363.03 488.43 1364.43 486.42
  Q 1364.74 485.97 1364.70 485.43
  Q 1364.59 484.01 1365.40 481.42
  Q 1367.45 474.95 1369.78 468.54
  Q 1370.53 466.47 1370.15 459.65
  Q 1370.13 459.19 1369.79 458.88
  Q 1368.25 457.46 1368.74 455.51
  A 0.18 0.15 -31.5 0 0 1368.41 455.46
  Q 1367.63 457.31 1367.02 459.24
  Q 1366.89 459.66 1366.74 459.24
  L 1366.36 458.20"
/>
<path stroke="#b3e7a0" vector-effect="non-scaling-stroke" d="
  M 1366.36 458.20
  L 1374.25 435.25
  A 0.57 0.57 0.0 0 0 1373.71 434.50
  L 1309.05 434.49
  A 0.63 0.62 8.0 0 0 1308.45 434.94
  L 1266.46 576.25
  A 0.29 0.29 0.0 0 1 1265.90 576.25
  Q 1244.81 505.44 1223.58 434.66
  A 0.21 0.20 -7.2 0 0 1223.38 434.51
  L 1157.97 434.49
  Q 1157.48 434.49 1157.64 434.96
  L 1165.18 456.76"
/>
<path stroke="#aad48d" vector-effect="non-scaling-stroke" d="
  M 1366.36 458.20
  Q 1362.83 467.95 1359.43 477.73
  Q 1322.89 582.90 1286.45 688.11
  C 1276.67 716.35 1264.49 743.49 1233.71 753.38
  C 1217.73 758.51 1198.87 757.75 1182.65 753.11
  A 1.26 1.25 -82.1 0 1 1181.74 751.90
  L 1181.72 729.75"
/>
<path stroke="#aad48d" vector-effect="non-scaling-stroke" d="
  M 1235.42 670.70
  L 1237.61 665.15
  Q 1237.80 664.67 1237.63 664.19
  L 1165.18 456.76"
/>
<path stroke="#2a5558" vector-effect="non-scaling-stroke" d="
  M 1242.08 209.03
  Q 1234.17 219.03 1228.22 230.52
  Q 1227.95 231.04 1228.47 231.32
  L 1236.02 235.30"
/>
<path stroke="#33676b" vector-effect="non-scaling-stroke" d="
  M 1236.02 235.30
  Q 1243.71 239.44 1250.93 243.11
  C 1252.46 243.88 1254.03 243.29 1254.98 241.84
  Q 1266.98 223.49 1271.43 218.19
  Q 1291.43 194.36 1316.29 175.38"
/>
<path stroke="#2a5558" vector-effect="non-scaling-stroke" d="
  M 1316.29 175.38
  Q 1331.42 165.52 1347.28 156.65"
/>
<path stroke="#33676b" vector-effect="non-scaling-stroke" d="
  M 1347.28 156.65
  L 1353.43 153.04
  Q 1354.30 152.53 1353.28 152.55
  C 1309.53 153.42 1268.89 174.67 1242.08 209.03"
/>
<path stroke="#5dbcc3" vector-effect="non-scaling-stroke" d="
  M 1347.28 156.65
  L 1346.74 155.35
  Q 1346.57 154.96 1346.15 154.93
  C 1339.96 154.52 1336.40 155.76 1330.02 156.51
  Q 1323.55 157.28 1309.07 162.10
  Q 1305.46 163.30 1303.26 164.45
  C 1301.99 165.11 1300.37 165.46 1299.08 166.27
  Q 1297.39 167.34 1296.09 167.70
  Q 1290.57 169.25 1286.02 172.76
  Q 1285.64 173.05 1285.17 173.12
  Q 1283.67 173.34 1283.19 174.81
  Q 1283.00 175.40 1282.40 175.23
  Q 1281.18 174.87 1280.61 176.01
  Q 1280.38 176.49 1279.91 176.76
  Q 1264.29 185.60 1252.99 198.21
  C 1250.19 201.34 1247.81 203.34 1245.61 206.64
  Q 1244.14 208.84 1242.08 209.03"
/>
<path stroke="#5dbcc3" vector-effect="non-scaling-stroke" d="
  M 1316.29 175.38
  Q 1309.57 178.57 1303.53 183.36
  Q 1303.31 183.54 1303.06 183.39
  C 1301.31 182.39 1292.69 187.26 1291.01 188.44
  C 1287.37 190.99 1284.59 191.96 1280.68 193.16
  A 1.53 1.52 -80.5 0 0 1279.93 193.70
  C 1277.90 196.44 1274.58 196.00 1273.03 199.58
  A 1.07 1.07 0.0 0 1 1272.35 200.18
  Q 1268.99 201.12 1267.13 203.95
  Q 1266.84 204.38 1266.37 204.59
  Q 1261.79 206.58 1259.05 210.61
  C 1258.08 212.04 1257.83 214.06 1256.22 215.65
  Q 1255.86 216.01 1255.37 216.12
  C 1251.26 217.04 1245.26 226.87 1243.84 229.88
  Q 1243.23 231.19 1242.00 231.93
  Q 1241.57 232.19 1241.41 232.66
  Q 1240.46 235.43 1236.02 235.30"
/>
<path stroke="#33676b" vector-effect="non-scaling-stroke" d="
  M 1272.68 255.72
  L 1380.37 333.48
  Q 1380.80 333.79 1381.07 333.33
  C 1387.60 322.28 1395.33 310.80 1401.05 300.50
  Q 1410.22 284.01 1418.47 267.03
  C 1426.40 250.71 1431.58 234.44 1435.96 216.73
  Q 1437.41 210.85 1437.70 206.48"
/>
<path stroke="#2a5558" vector-effect="non-scaling-stroke" d="
  M 1437.70 206.48
  C 1438.66 196.82 1437.86 182.84 1430.60 174.79
  Q 1427.79 171.67 1420.44 168.09
  C 1409.76 162.87 1396.36 155.87 1388.31 157.30
  C 1358.90 162.53 1334.81 176.89 1311.92 195.35
  Q 1305.16 200.80 1297.58 208.66
  C 1284.56 222.17 1274.65 234.72 1265.04 249.69
  Q 1264.78 250.08 1265.16 250.36
  L 1272.68 255.72"
/>
<path stroke="#5dbcc3" vector-effect="non-scaling-stroke" d="
  M 1437.70 206.48
  Q 1437.25 205.66 1436.65 206.23
  A 1.14 1.14 0.0 0 1 1434.75 205.63
  Q 1433.99 201.83 1432.20 198.37
  C 1429.66 193.44 1425.25 192.17 1420.88 189.53
  C 1418.09 187.85 1415.56 186.62 1412.81 184.61
  Q 1406.87 180.27 1399.85 177.94
  C 1397.35 177.11 1394.18 177.12 1391.05 176.70
  C 1384.38 175.79 1373.68 178.90 1366.71 181.43
  Q 1365.38 181.91 1362.91 183.23
  C 1359.78 184.91 1356.04 185.83 1353.27 187.25
  Q 1351.38 188.22 1349.48 189.12
  C 1346.05 190.74 1342.80 190.69 1340.06 194.29
  C 1338.78 195.98 1335.92 199.39 1333.75 199.64
  A 1.67 1.66 -68.3 0 0 1332.88 200.02
  Q 1327.54 204.66 1321.55 208.42
  C 1319.52 209.70 1318.48 211.98 1315.56 212.62
  A 1.68 1.63 16.3 0 0 1314.75 213.05
  Q 1312.73 214.99 1310.60 216.76
  C 1307.23 219.57 1305.10 223.31 1301.86 226.36
  Q 1298.25 229.76 1294.84 233.35
  C 1292.69 235.60 1288.94 238.74 1286.55 242.04
  C 1284.87 244.36 1282.04 246.46 1281.02 249.81
  Q 1280.87 250.29 1280.48 250.59
  C 1277.38 253.00 1278.63 257.23 1272.68 255.72"
/>
<path stroke="#33676b" vector-effect="non-scaling-stroke" d="
  M 1396.88 344.55
  C 1420.39 360.81 1443.83 376.44 1470.76 386.49
  Q 1471.44 386.74 1471.74 386.09
  C 1478.09 372.18 1485.90 357.02 1490.43 343.57
  Q 1497.42 322.84 1497.97 300.79"
/>
<path stroke="#2a5558" vector-effect="non-scaling-stroke" d="
  M 1497.97 300.79
  C 1498.98 259.10 1484.50 224.89 1457.15 194.08
  Q 1454.28 190.85 1450.62 188.14
  Q 1449.96 187.65 1450.06 188.47
  C 1452.80 210.26 1448.25 228.78 1440.66 248.17
  Q 1429.25 277.30 1413.46 304.31
  Q 1402.84 322.48 1392.07 340.67
  Q 1391.78 341.16 1392.26 341.48
  L 1396.88 344.55"
/>
<path stroke="#5dbcc3" vector-effect="non-scaling-stroke" d="
  M 1497.97 300.79
  C 1497.58 298.80 1498.25 295.34 1497.10 294.56
  Q 1496.70 294.29 1496.47 293.87
  C 1494.91 290.99 1494.87 286.43 1493.70 282.89
  C 1492.68 279.83 1492.21 277.25 1491.73 274.28
  C 1491.45 272.56 1490.47 271.18 1490.06 269.39
  C 1489.28 265.99 1488.14 263.42 1487.26 260.32
  A 1.07 1.07 0.0 0 0 1486.69 259.64
  C 1485.93 259.26 1482.71 251.15 1481.97 249.70
  C 1480.68 247.19 1479.62 242.99 1477.04 240.17
  Q 1476.71 239.81 1476.61 239.34
  Q 1476.06 236.75 1473.97 234.51
  Q 1469.91 230.16 1466.47 224.04
  Q 1466.17 223.49 1464.47 222.48
  Q 1464.05 222.22 1463.84 221.78
  C 1462.34 218.65 1455.01 211.86 1453.31 218.25
  Q 1452.39 221.71 1450.86 232.89
  C 1450.45 235.91 1450.48 239.01 1449.13 242.24
  Q 1448.93 242.71 1448.98 243.21
  Q 1449.19 245.23 1447.63 246.44
  Q 1447.28 246.71 1447.18 247.15
  C 1445.99 252.85 1444.71 257.66 1442.25 262.97
  C 1440.88 265.93 1440.49 268.78 1438.66 272.26
  C 1437.80 273.88 1437.85 275.84 1436.35 277.42
  Q 1436.01 277.77 1436.01 278.26
  C 1435.99 279.99 1434.94 281.06 1434.43 282.21
  Q 1432.77 286.01 1431.30 289.87
  Q 1431.14 290.28 1430.75 290.46
  Q 1430.11 290.76 1430.25 291.42
  Q 1430.35 291.94 1429.98 292.32
  Q 1428.73 293.60 1428.35 295.37
  Q 1428.26 295.79 1427.91 296.05
  C 1427.57 296.30 1427.26 296.52 1427.08 296.92
  Q 1421.39 309.30 1413.94 320.75
  Q 1413.68 321.14 1413.69 321.62
  Q 1413.69 324.10 1411.73 325.45
  Q 1411.30 325.74 1411.06 326.19
  C 1409.75 328.68 1404.10 337.62 1404.16 339.75
  A 1.12 1.09 -22.2 0 1 1403.78 340.62
  Q 1402.67 341.60 1401.77 342.77
  C 1400.19 344.83 1400.68 345.77 1396.88 344.55"
/>
<path stroke="#33676b" vector-effect="non-scaling-stroke" d="
  M 1207.51 245.20
  L 1134.72 257.97
  A 0.49 0.49 0.0 0 0 1134.51 258.84
  L 1145.23 267.07"
/>
<path stroke="#2a5558" vector-effect="non-scaling-stroke" d="
  M 1145.23 267.07
  L 1153.85 274.26"
/>
<path stroke="#33676b" vector-effect="non-scaling-stroke" d="
  M 1153.85 274.26
  Q 1170.13 290.46 1192.19 315.06
  Q 1212.91 338.17 1240.30 356.15
  C 1252.46 364.13 1264.34 370.01 1277.75 372.02
  C 1308.75 376.65 1340.34 370.85 1372.45 362.45"
/>
<path stroke="#2a5558" vector-effect="non-scaling-stroke" d="
  M 1372.45 362.45
  Q 1381.06 360.40 1389.74 357.22
  Q 1390.20 357.06 1389.81 356.77
  Q 1347.15 326.39 1305.20 295.04
  Q 1282.74 278.26 1259.14 263.15
  C 1247.69 255.81 1235.93 249.92 1223.77 244.20
  C 1218.37 241.66 1213.17 243.05 1207.51 245.20"
/>
<path stroke="#5dbcc3" vector-effect="non-scaling-stroke" d="
  M 1372.45 362.45
  Q 1370.41 361.58 1367.74 361.65
  Q 1367.21 361.67 1366.93 361.22
  C 1364.51 357.43 1361.10 356.10 1357.90 353.67
  Q 1355.93 352.17 1353.66 351.06
  Q 1353.62 351.04 1353.67 351.03
  Q 1353.82 351.01 1353.97 351.00
  Q 1354.21 350.99 1354.00 350.88
  Q 1347.14 347.65 1345.19 346.33
  Q 1340.09 342.90 1335.02 339.46
  C 1333.90 338.71 1332.13 338.02 1330.87 336.70
  Q 1329.03 334.79 1328.22 334.22
  C 1323.43 330.86 1319.61 326.62 1314.89 323.50
  Q 1310.82 320.81 1306.90 317.89
  C 1305.35 316.74 1303.32 316.40 1301.78 315.04
  C 1298.10 311.81 1294.11 309.17 1290.04 306.48
  Q 1288.82 305.68 1287.98 304.47
  Q 1287.71 304.07 1287.26 303.87
  Q 1281.87 301.45 1275.74 296.01
  Q 1272.71 293.32 1266.98 289.95
  C 1264.56 288.52 1256.83 282.20 1254.09 282.70
  Q 1253.62 282.78 1253.25 282.47
  C 1251.51 280.98 1249.86 280.57 1248.27 278.83
  Q 1244.67 274.88 1239.40 273.26
  Q 1239.33 273.24 1239.31 273.17
  Q 1239.27 273.04 1239.24 272.91
  Q 1239.16 272.51 1238.75 272.56
  Q 1237.48 272.71 1236.17 271.57
  C 1235.73 271.18 1229.02 268.34 1228.95 268.16
  Q 1228.79 267.77 1228.41 267.59
  C 1220.74 263.96 1209.81 262.97 1202.12 267.17
  Q 1201.68 267.41 1201.19 267.30
  C 1198.62 266.69 1195.83 267.59 1194.14 267.69
  Q 1184.19 268.26 1180.52 269.57
  C 1175.06 271.52 1168.99 272.50 1163.29 273.66
  C 1161.59 274.00 1159.14 275.74 1157.05 274.91
  Q 1154.99 274.09 1153.85 274.26"
/>
<path stroke="#5dbcc3" vector-effect="non-scaling-stroke" d="
  M 1145.23 267.07
  Q 1142.85 263.66 1139.36 261.40
  A 1.38 1.38 0.0 0 1 1139.56 258.97
  Q 1141.23 258.25 1143.49 258.06
  C 1145.29 257.91 1146.53 257.13 1148.41 256.89
  C 1152.68 256.36 1156.92 255.49 1161.23 255.26
  Q 1161.73 255.23 1162.15 254.96
  C 1164.25 253.62 1167.14 253.99 1169.06 253.53
  C 1173.19 252.55 1177.43 252.38 1181.55 251.35
  Q 1184.24 250.68 1186.99 250.28
  C 1191.51 249.61 1195.85 248.51 1200.37 248.12
  C 1202.34 247.94 1203.99 246.93 1206.18 247.00
  Q 1206.70 247.01 1207.01 246.61
  Q 1207.47 246.02 1207.51 245.20"
/>
<path stroke="#b3e7a0" vector-effect="non-scaling-stroke" d="
  M 515.29 607.08
  C 528.38 631.91 569.44 621.39 582.71 602.22
  Q 584.91 599.05 584.10 595.73"
/>
<path stroke="#aad48d" vector-effect="non-scaling-stroke" d="
  M 584.10 595.73
  L 584.27 560.37
  Q 584.27 559.87 583.78 559.86
  C 556.10 559.00 509.96 556.65 512.75 598.52
  Q 513.00 602.21 515.29 607.08"
/>
<path stroke="#5dbcc3" vector-effect="non-scaling-stroke" d="
  M 584.10 595.73
  Q 583.12 591.69 583.58 587.43
  A 0.13 0.13 0.0 0 0 583.33 587.38
  Q 583.27 587.55 583.22 587.73
  Q 583.14 587.98 583.07 587.73
  L 582.65 586.30
  A 0.05 0.05 0.0 0 0 582.55 586.30
  L 582.49 586.73
  Q 582.44 587.13 582.26 586.76
  Q 579.27 580.63 572.32 580.19
  Q 571.82 580.15 571.39 579.89
  L 569.27 578.60
  Q 568.90 578.37 568.47 578.40
  C 565.75 578.57 563.55 577.63 560.95 577.99
  C 545.16 580.20 528.59 581.13 518.81 596.02
  Q 518.56 596.39 518.62 596.83
  Q 519.14 600.73 515.68 602.47
  A 0.89 0.89 0.0 0 0 515.19 603.28
  L 515.29 607.08"
/>
<path stroke="#b3e7a0" vector-effect="non-scaling-stroke" d="
  M 764.46 609.13
  Q 773.46 616.55 785.19 618.16
  C 818.29 622.71 833.78 600.93 836.81 571.14"
/>
<path stroke="#aad48d" vector-effect="non-scaling-stroke" d="
  M 836.81 571.14
  C 840.80 542.79 840.51 485.80 800.50 480.77
  C 783.43 478.62 764.71 483.69 755.87 499.90
  Q 754.79 501.87 754.78 504.38
  Q 754.47 548.88 754.49 593.37
  C 754.49 598.91 760.53 605.62 764.46 609.13"
/>
<path stroke="#5dbcc3" vector-effect="non-scaling-stroke" d="
  M 836.81 571.14
  Q 835.53 566.66 836.39 561.81
  C 837.67 554.67 837.09 547.06 837.10 539.80
  Q 837.10 539.57 836.87 539.54
  L 836.45 539.48
  Q 836.16 539.44 836.14 539.15
  C 835.64 532.14 832.56 526.29 829.44 520.18
  C 827.10 515.59 823.95 512.11 820.53 508.38
  A 1.75 1.72 -71.1 0 1 820.09 507.46
  Q 819.86 505.97 818.45 505.90
  Q 817.91 505.87 817.52 505.49
  C 815.43 503.46 808.91 498.77 805.75 498.50
  C 799.23 497.95 792.96 496.22 786.48 497.53
  Q 782.32 498.37 778.07 498.08
  A 1.08 1.05 -63.7 0 0 777.28 498.36
  Q 775.44 500.03 773.06 500.63
  A 2.19 2.11 18.2 0 0 772.25 501.02
  L 760.77 509.76
  A 1.43 1.38 82.6 0 0 760.34 510.34
  Q 758.96 514.00 756.05 516.54
  Q 755.65 516.88 755.66 517.41
  Q 756.19 555.53 755.89 593.67
  C 755.85 598.85 760.00 603.90 763.71 607.05
  Q 765.07 608.20 764.46 609.13"
/>
<path stroke="#b3e7a0" vector-effect="non-scaling-stroke" d="
  M 1010.33 609.68
  Q 1018.10 616.34 1029.51 618.07
  C 1060.15 622.71 1075.70 605.47 1080.81 577.06
  Q 1082.83 565.88 1082.90 558.28"
/>
<path stroke="#aad48d" vector-effect="non-scaling-stroke" d="
  M 1082.90 558.28
  C 1084.99 532.67 1081.44 490.24 1050.56 481.71
  C 1045.12 480.21 1038.76 480.25 1032.97 480.63
  Q 1011.13 482.06 1000.55 500.27
  Q 999.47 502.13 999.48 504.45
  Q 999.53 549.03 999.49 593.54
  C 999.48 599.47 1005.83 606.17 1010.33 609.68"
/>
<path stroke="#5dbcc3" vector-effect="non-scaling-stroke" d="
  M 1082.90 558.28
  Q 1081.98 556.21 1081.91 553.93
  Q 1081.81 551.16 1081.38 549.63
  Q 1079.73 543.84 1079.26 537.81
  A 0.05 0.05 0.0 0 0 1079.17 537.78
  L 1079.00 537.98
  Q 1078.76 538.25 1078.70 537.89
  C 1075.73 521.60 1066.23 506.95 1050.60 501.34
  C 1047.76 500.32 1045.95 498.36 1042.18 499.68
  A 1.63 1.59 41.9 0 1 1041.22 499.72
  Q 1036.57 498.43 1031.98 499.84
  A 1.70 1.68 45.3 0 1 1030.98 499.83
  C 1025.38 498.06 1010.83 507.32 1007.33 511.83
  Q 1004.70 515.21 1002.01 518.60
  Q 1001.71 518.98 1001.77 519.46
  Q 1001.89 520.49 1001.17 521.31
  Q 1000.92 521.59 1000.92 521.97
  L 1000.73 596.26
  Q 1000.73 596.89 1001.11 597.40
  L 1010.33 609.68"
/>
</g>
<path fill="#66ced6" d="
  M 0.00 0.00
  L 1587.00 0.00
  L 1587.00 894.00
  L 0.00 894.00
  L 0.00 0.00
  Z
  M 1095.16 278.45
  Q 1090.38 284.32 1092.39 291.31
  Q 1092.53 291.79 1092.96 292.04
  Q 1098.70 295.43 1103.23 291.49
  C 1105.41 289.60 1110.33 287.43 1113.12 287.28
  Q 1116.16 287.11 1119.22 287.31
  A 1.50 1.46 -22.6 0 1 1120.08 287.65
  C 1122.83 289.92 1126.12 289.88 1128.57 291.18
  C 1134.54 294.33 1138.93 298.82 1145.81 303.52
  A 1.47 1.41 10.2 0 1 1146.39 304.32
  C 1146.69 305.39 1146.88 305.08 1147.92 305.74
  C 1150.25 307.23 1152.58 310.12 1154.50 312.15
  A 2.25 2.23 -11.7 0 0 1155.38 312.72
  Q 1156.50 313.12 1156.50 314.24
  A 1.00 0.99 18.9 0 0 1156.89 315.03
  Q 1159.31 316.89 1161.17 319.24
  Q 1161.19 319.27 1161.23 319.27
  Q 1161.38 319.25 1161.54 319.24
  Q 1161.78 319.22 1161.93 319.41
  Q 1165.79 324.05 1170.00 328.38
  C 1171.49 329.91 1172.52 331.99 1174.21 333.57
  C 1180.45 339.40 1185.59 346.86 1189.41 349.84
  Q 1191.93 351.80 1192.94 353.44
  Q 1193.19 353.85 1193.61 354.09
  C 1195.42 355.12 1196.18 357.10 1197.55 358.27
  Q 1203.06 362.97 1208.14 368.12
  Q 1211.29 371.31 1214.83 373.83
  C 1219.22 376.94 1224.30 382.00 1230.18 383.01
  Q 1234.17 383.69 1237.94 387.05
  Q 1240.91 389.71 1245.87 391.04
  C 1248.88 391.86 1251.14 393.72 1253.50 394.49
  C 1262.78 397.51 1271.34 400.67 1281.61 401.94
  C 1281.93 401.98 1281.97 402.09 1282.04 402.37
  Q 1282.13 402.75 1282.51 402.74
  Q 1285.81 402.66 1292.73 403.51
  C 1299.02 404.29 1307.94 402.97 1314.06 402.40
  C 1320.96 401.76 1326.96 401.16 1334.50 399.96
  C 1339.51 399.16 1344.30 400.43 1349.09 398.74
  C 1350.69 398.17 1352.44 398.54 1354.03 397.31
  Q 1354.43 397.01 1354.93 396.93
  L 1364.34 395.55
  A 3.96 3.84 45.9 0 1 1365.64 395.59
  Q 1366.91 395.84 1368.00 395.10
  Q 1368.38 394.85 1368.84 394.83
  Q 1372.42 394.71 1375.55 393.25
  Q 1379.30 391.49 1380.82 391.00
  C 1384.74 389.71 1389.49 386.59 1393.69 386.86
  Q 1399.70 387.25 1405.72 387.96
  A 1.89 1.82 -20.3 0 1 1406.70 388.39
  Q 1408.57 390.02 1411.02 389.76
  A 1.63 1.54 54.2 0 1 1411.96 389.94
  Q 1415.82 391.96 1419.28 394.60
  A 2.39 2.32 69.0 0 0 1420.21 395.03
  C 1421.71 395.34 1422.61 396.75 1423.55 397.30
  C 1427.84 399.80 1430.99 401.29 1436.79 404.30
  Q 1440.41 406.18 1444.29 407.50
  C 1449.55 409.28 1454.26 412.19 1459.33 414.25
  C 1464.17 416.20 1467.13 418.81 1473.15 418.29
  C 1479.25 417.77 1483.35 411.98 1485.40 406.69
  C 1487.30 401.79 1490.38 397.26 1492.52 392.29
  C 1494.43 387.88 1496.68 384.49 1497.86 379.69
  Q 1498.86 375.66 1499.97 373.18
  C 1504.18 363.79 1505.09 356.64 1507.36 347.95
  C 1508.83 342.30 1509.40 337.20 1510.11 331.50
  A 0.62 0.62 0.0 0 0 1508.98 331.09
  Q 1508.21 332.26 1507.15 331.19
  C 1517.38 283.22 1506.27 234.91 1475.44 196.32
  C 1450.99 165.72 1421.09 148.83 1383.51 141.19
  C 1350.22 134.42 1313.59 141.65 1283.84 157.03
  C 1277.34 160.39 1270.96 165.31 1264.66 169.66
  C 1243.28 184.42 1226.78 203.73 1215.01 226.95
  C 1214.27 228.41 1212.96 229.36 1211.51 229.77
  C 1186.11 237.01 1157.28 240.46 1130.21 245.05
  C 1117.20 247.26 1095.16 252.49 1089.92 266.00
  Q 1086.99 273.58 1095.16 278.45
  Z
  M 170.82 486.09
  L 169.44 486.60
  A 0.67 0.67 0.0 0 0 169.00 487.23
  L 169.00 496.01
  A 0.99 0.97 72.7 0 1 168.59 496.81
  C 165.64 498.88 166.96 524.05 166.86 527.93
  C 166.35 548.56 167.97 569.14 172.95 589.20
  Q 175.42 599.14 177.98 609.06
  C 178.87 612.52 180.71 615.56 181.97 619.02
  C 183.14 622.22 185.90 624.83 187.51 627.94
  C 188.20 629.27 189.38 630.21 189.99 631.71
  C 191.49 635.43 194.39 639.64 197.07 642.62
  C 201.25 647.26 204.83 652.51 209.25 656.54
  Q 215.94 662.62 222.98 668.29
  C 223.83 668.98 224.17 670.14 225.43 670.57
  Q 225.91 670.73 226.30 671.05
  Q 232.34 676.05 241.50 678.03
  Q 248.30 679.50 257.46 683.65
  C 259.65 684.64 261.51 684.35 263.78 685.19
  C 269.38 687.26 276.59 688.48 282.50 688.80
  Q 294.50 689.44 306.52 689.47
  C 308.29 689.47 309.53 688.77 311.40 688.68
  Q 313.74 688.57 315.03 688.28
  C 318.63 687.46 322.74 687.58 325.97 687.04
  C 330.83 686.21 335.78 685.69 340.47 684.22
  C 345.08 682.78 349.20 681.52 353.98 679.48
  Q 357.49 677.98 361.10 676.74
  C 363.66 675.86 365.80 674.06 368.48 673.07
  Q 371.08 672.12 372.82 670.92
  C 376.03 668.72 379.97 667.16 382.71 664.87
  C 386.98 661.29 390.86 656.65 394.54 653.15
  C 402.04 646.03 406.25 639.69 411.79 630.02
  C 413.41 627.19 414.76 623.90 416.39 620.84
  C 420.48 613.16 422.08 603.55 423.28 595.01
  C 423.88 590.71 424.45 584.78 421.01 581.72
  Q 420.59 581.35 420.71 580.79
  L 421.94 575.15
  Q 422.06 574.62 421.53 574.50
  Q 421.21 574.42 420.82 574.79
  L 422.25 561.79
  Q 422.32 561.25 421.77 561.25
  L 359.26 561.25
  A 0.75 0.75 0.0 0 0 358.51 561.96
  C 356.24 602.06 331.24 618.19 292.94 616.03
  C 259.62 614.15 244.10 592.31 238.53 561.99
  C 234.33 539.09 234.65 514.80 235.17 491.26
  C 236.21 491.39 236.74 491.05 236.81 489.98
  C 237.16 484.25 235.99 479.57 238.59 474.25
  Q 238.81 473.80 238.59 473.34
  C 237.45 470.96 239.05 469.78 239.63 468.09
  Q 244.44 454.09 246.48 450.49
  Q 253.04 438.90 263.35 430.49
  A 1.12 1.12 0.0 0 1 264.26 430.25
  Q 264.78 430.33 265.08 430.03
  A 0.98 0.01 -46.3 0 1 265.75 429.34
  C 270.37 426.43 275.22 425.67 279.94 423.24
  C 287.11 419.53 292.37 420.36 300.40 420.11
  C 303.72 420.01 307.26 420.73 310.76 420.67
  C 312.92 420.63 314.22 421.62 316.27 421.96
  C 322.81 423.03 328.53 425.05 334.29 428.28
  C 339.47 431.18 343.49 435.91 347.31 440.50
  C 351.83 445.92 354.03 453.38 356.10 460.01
  C 359.37 470.47 362.11 477.17 373.81 477.27
  Q 381.95 477.35 399.33 477.21
  C 411.72 477.12 421.37 475.95 420.59 461.13
  A 0.12 0.09 -35.8 0 1 420.61 461.07
  Q 420.67 460.97 420.76 460.86
  Q 420.93 460.65 420.67 460.57
  Q 420.12 460.40 420.24 460.00
  L 422.14 459.95
  Q 422.70 459.94 422.65 459.38
  C 417.45 401.30 381.30 360.51 322.51 352.46
  C 232.27 340.11 175.30 399.03 170.82 486.09
  Z
  M 456.17 503.46
  Q 455.82 504.93 458.19 504.97
  Q 458.90 504.98 458.29 505.34
  L 458.02 505.51
  Q 457.51 505.81 457.81 506.32
  Q 458.99 508.34 458.14 510.65
  Q 457.97 511.12 458.09 511.61
  C 460.08 520.23 467.65 520.83 475.12 521.38
  A 4.11 3.89 55.3 0 1 476.12 521.59
  Q 477.34 522.02 478.55 521.35
  Q 478.98 521.12 479.46 521.19
  C 482.42 521.63 485.48 521.13 488.21 521.35
  C 496.04 521.99 503.08 521.57 510.73 519.70
  C 516.41 518.31 520.37 509.53 523.88 505.65
  Q 524.92 504.52 526.03 502.45
  C 528.20 498.41 537.11 495.90 542.32 494.58
  C 547.60 493.25 555.32 494.13 561.41 494.22
  Q 561.91 494.22 562.33 494.50
  Q 564.54 495.99 566.62 497.56
  Q 566.79 497.69 571.08 500.57
  C 575.51 503.54 577.96 508.04 580.73 512.97
  C 582.45 516.02 582.84 518.96 583.19 522.32
  Q 583.21 522.54 583.41 522.43
  L 583.94 522.15
  Q 584.23 522.00 584.23 521.66
  L 584.30 512.23
  L 584.42 523.13
  Q 584.42 523.66 583.89 523.67
  Q 565.04 523.89 546.19 524.26
  C 497.16 525.23 448.54 546.25 451.07 604.00
  Q 449.06 609.46 448.84 613.48
  C 447.57 636.05 456.47 654.93 473.81 669.09
  Q 483.00 676.60 491.69 680.54
  C 495.28 682.17 499.84 683.34 503.95 684.76
  C 506.32 685.58 508.62 685.45 511.15 686.14
  C 519.16 688.31 528.03 688.39 536.28 687.98
  C 540.44 687.77 544.66 686.42 548.94 685.65
  C 553.99 684.74 561.45 681.90 565.87 679.65
  C 569.88 677.61 574.62 674.59 579.13 674.19
  Q 583.00 673.85 584.49 674.24
  C 589.19 675.50 593.25 680.38 597.82 682.10
  Q 601.93 683.64 606.25 683.72
  Q 618.72 683.94 636.00 683.74
  Q 637.98 683.72 642.91 682.41
  C 647.62 681.17 649.56 682.62 651.93 677.07
  Q 652.59 675.52 653.27 673.98
  C 654.45 671.30 653.79 667.30 654.15 664.24
  C 655.84 663.97 655.36 661.17 654.80 659.91
  C 647.67 643.84 646.16 627.30 646.12 609.25
  Q 646.01 560.80 645.98 512.35
  C 645.98 504.21 645.42 497.65 643.86 490.33
  C 638.21 463.69 617.66 443.52 592.26 435.74
  C 551.66 423.32 494.47 430.51 467.72 467.68
  Q 456.16 483.74 456.17 503.46
  Z
  M 696.57 752.51
  Q 697.64 754.16 693.60 753.95
  A 0.35 0.34 -31.5 0 0 693.44 754.61
  L 694.81 755.19
  Q 695.18 755.36 695.34 755.73
  C 697.43 760.69 700.93 767.04 707.32 766.93
  Q 727.19 766.56 732.50 767.07
  C 743.21 768.08 749.73 765.27 752.18 754.19
  Q 752.22 754.00 752.02 754.00
  Q 751.89 754.00 751.74 754.00
  A 0.25 0.09 -26.1 0 1 752.00 753.73
  L 754.91 753.24
  A 1.22 1.20 85.3 0 0 755.91 752.04
  L 755.94 675.73
  A 1.12 1.11 63.9 0 1 756.17 675.05
  L 757.49 673.26
  Q 757.81 672.83 758.34 672.71
  Q 759.15 672.52 759.37 671.76
  Q 759.54 671.17 760.13 671.31
  Q 760.86 671.49 761.35 671.93
  Q 761.70 672.25 762.17 672.28
  Q 763.09 672.35 763.55 672.96
  Q 763.77 673.26 764.13 673.37
  L 784.44 679.34
  Q 784.93 679.48 785.27 679.87
  Q 788.60 683.65 793.52 682.60
  Q 793.99 682.49 794.44 682.68
  Q 799.64 684.79 805.27 684.75
  C 807.53 684.74 809.81 685.60 812.33 684.85
  C 817.07 683.44 822.93 684.07 826.23 683.41
  Q 835.57 681.55 843.94 677.19
  C 848.78 674.67 853.34 672.42 858.07 670.08
  C 859.35 669.45 860.48 667.35 861.66 666.34
  C 868.58 660.36 875.41 653.36 880.01 645.40
  C 883.23 639.82 886.62 634.92 888.69 629.03
  Q 890.44 624.09 891.84 619.03
  C 892.39 617.04 893.86 614.52 893.94 612.04
  Q 894.06 608.19 894.21 607.52
  Q 894.98 603.88 896.24 600.35
  Q 896.42 599.84 896.20 599.35
  Q 895.45 597.73 896.65 596.29
  Q 896.99 595.87 896.91 595.34
  C 896.39 592.13 897.71 588.96 898.02 586.61
  C 898.59 582.42 899.89 578.07 899.96 573.86
  C 900.03 570.33 901.04 567.11 900.89 563.80
  Q 900.41 552.96 900.50 542.11
  C 900.51 541.27 901.10 540.39 901.04 539.75
  Q 900.66 535.20 900.73 530.87
  A 0.62 0.62 0.0 0 0 899.62 530.49
  L 899.23 531.02
  C 896.41 486.31 875.83 439.53 826.49 431.55
  C 798.21 426.97 771.74 434.00 752.85 456.21
  Q 752.28 456.88 752.20 456.00
  L 750.12 435.00
  A 0.56 0.55 87.1 0 0 749.57 434.50
  L 694.25 434.50
  Q 693.25 434.50 693.25 435.50
  L 693.25 751.83
  Q 693.25 752.41 693.84 752.43
  L 696.57 752.51
  Z
  M 938.02 457.75
  Q 937.44 457.92 937.43 458.44
  C 937.15 467.11 937.84 476.46 937.10 485.64
  C 936.60 491.77 937.37 498.00 937.29 504.37
  C 937.11 518.02 937.32 532.55 937.34 545.42
  C 937.41 584.36 936.89 610.46 937.25 632.84
  Q 937.36 639.12 937.08 646.66
  C 936.78 654.76 937.54 663.71 937.47 670.78
  Q 937.17 704.31 937.20 715.50
  C 937.21 717.41 936.63 718.74 936.82 720.41
  Q 937.95 729.86 937.39 737.68
  C 937.01 742.94 937.26 747.65 936.64 752.17
  C 936.15 755.71 938.22 760.98 939.28 763.76
  C 941.63 769.93 946.68 769.45 952.05 770.68
  Q 955.36 771.44 958.83 770.54
  A 1.91 1.89 45.3 0 1 959.79 770.55
  C 962.79 771.34 965.34 770.00 967.90 770.04
  C 976.09 770.15 989.96 772.82 996.10 766.69
  C 998.02 764.76 998.58 761.91 1000.07 759.46
  Q 1000.33 759.03 1000.28 758.54
  Q 999.99 755.56 1000.78 752.79
  C 1001.31 750.90 1000.83 749.45 1000.83 747.82
  Q 1000.98 712.36 1001.03 676.94
  Q 1001.04 676.47 1001.40 676.17
  C 1007.41 671.34 1009.88 675.03 1015.66 676.99
  C 1020.63 678.68 1025.49 680.66 1030.44 682.42
  C 1031.45 682.78 1032.80 682.71 1033.83 683.64
  Q 1034.16 683.93 1034.58 684.04
  Q 1040.52 685.59 1046.63 685.22
  A 0.76 0.75 70.7 0 1 1047.28 685.54
  C 1048.52 687.33 1062.41 686.07 1065.02 686.15
  C 1070.16 686.31 1074.17 685.42 1078.92 684.46
  Q 1078.94 684.46 1078.95 684.43
  Q 1079.00 684.33 1079.00 684.16
  Q 1079.00 683.90 1079.24 683.81
  C 1085.09 681.70 1091.31 679.99 1096.52 676.92
  C 1102.57 673.35 1108.44 669.34 1112.73 664.20
  C 1114.39 662.20 1116.75 661.24 1118.42 658.94
  C 1122.01 653.99 1125.85 649.35 1128.65 644.05
  Q 1133.65 634.57 1137.79 624.68
  C 1138.33 623.37 1138.14 621.81 1139.31 620.50
  A 1.60 1.54 -22.5 0 0 1139.69 619.63
  Q 1140.22 614.37 1142.05 609.47
  Q 1142.48 608.34 1142.73 607.01
  C 1143.15 604.85 1143.94 602.88 1144.14 600.78
  Q 1145.05 590.83 1145.87 580.85
  C 1146.13 577.76 1145.11 574.81 1145.31 571.43
  C 1145.48 568.75 1147.31 566.72 1146.07 563.26
  Q 1145.84 562.62 1145.94 563.30
  Q 1146.38 566.23 1145.16 568.89
  Q 1144.93 569.39 1144.96 569.94
  C 1145.16 573.78 1144.29 577.35 1143.84 581.18
  Q 1143.55 583.60 1142.77 585.97
  Q 1142.69 586.21 1142.46 586.08
  Q 1142.21 585.94 1141.93 585.91
  C 1152.41 521.41 1137.59 424.65 1048.99 430.51
  Q 1017.69 432.58 997.80 456.26
  A 0.43 0.43 0.0 0 1 997.04 456.02
  L 995.06 435.01
  Q 995.02 434.51 994.51 434.51
  L 938.47 434.48
  A 0.29 0.29 0.0 0 0 938.18 434.77
  L 938.02 457.75
  Z
  M 1165.18 456.76
  Q 1164.75 456.74 1164.47 457.53
  Q 1164.25 458.16 1164.25 457.50
  L 1164.25 457.03
  Q 1164.25 456.70 1163.98 456.90
  Q 1163.26 457.43 1163.52 458.40
  A 1.30 1.25 52.6 0 1 1163.41 459.36
  C 1160.94 463.83 1163.74 469.89 1165.32 474.29
  C 1167.35 479.92 1168.90 485.67 1171.15 491.29
  C 1173.72 497.73 1175.51 504.03 1177.93 510.32
  Q 1178.08 510.71 1178.35 511.00
  A 2.51 2.32 -77.3 0 1 1178.83 511.83
  Q 1184.88 529.41 1191.18 546.90
  C 1199.29 569.44 1206.74 592.29 1214.54 614.95
  Q 1215.83 618.68 1217.12 620.55
  C 1217.97 621.76 1217.63 623.23 1218.10 624.60
  Q 1220.25 630.80 1222.58 636.95
  Q 1223.65 639.77 1224.97 644.72
  C 1227.26 653.26 1230.68 661.19 1233.52 670.44
  Q 1233.64 670.83 1233.51 671.23
  Q 1233.22 672.09 1233.19 673.02
  A 0.20 0.20 0.0 0 0 1233.58 673.10
  L 1236.06 666.14
  A 0.07 0.07 0.0 0 1 1236.20 666.18
  L 1235.42 670.70
  C 1230.37 686.33 1225.27 700.76 1207.43 704.84
  Q 1195.92 707.47 1183.49 706.09
  A 1.69 1.69 0.0 0 0 1181.61 707.88
  Q 1182.27 718.58 1181.72 729.75
  Q 1179.16 739.72 1180.21 750.20
  C 1180.76 755.74 1179.83 760.50 1182.82 766.07
  Q 1182.90 766.22 1182.74 766.25
  Q 1182.53 766.29 1182.61 766.41
  C 1185.27 770.81 1192.76 773.97 1197.69 774.26
  C 1202.53 774.56 1207.31 775.90 1212.28 775.11
  C 1221.85 773.60 1230.79 772.12 1240.28 768.81
  Q 1242.37 768.08 1244.65 766.27
  C 1247.14 764.29 1249.52 763.27 1252.01 760.98
  C 1254.07 759.07 1256.87 758.68 1258.69 756.96
  Q 1267.87 748.25 1273.87 737.10
  Q 1274.90 735.19 1276.41 733.00
  C 1278.86 729.45 1279.45 725.59 1281.54 722.01
  Q 1284.61 716.76 1285.02 710.68
  A 1.81 1.77 -26.6 0 1 1285.33 709.78
  C 1287.28 707.01 1287.89 705.50 1288.41 701.71
  C 1288.79 698.93 1290.58 696.30 1291.34 694.03
  Q 1295.67 681.08 1300.61 668.34
  A 2.13 2.12 -37.5 0 0 1300.74 667.37
  Q 1300.64 666.51 1300.99 665.73
  Q 1301.26 665.11 1301.28 665.79
  Q 1301.39 669.36 1299.44 672.42
  A 0.17 0.17 0.0 0 0 1299.71 672.62
  Q 1302.03 669.87 1301.98 666.51
  A 2.01 2.01 0.0 0 1 1302.27 665.47
  Q 1303.69 663.15 1303.21 660.40
  Q 1303.12 659.89 1303.32 659.41
  C 1309.52 645.01 1313.12 630.48 1318.48 617.22
  C 1320.03 613.39 1321.77 608.70 1322.66 604.82
  Q 1325.63 591.86 1330.66 579.58
  Q 1330.68 579.54 1331.17 577.52
  Q 1331.50 576.17 1332.83 574.55
  Q 1335.99 570.70 1336.76 564.82
  Q 1337.09 562.36 1338.04 560.36
  C 1339.55 557.14 1340.22 553.75 1341.74 550.59
  C 1342.51 548.96 1342.15 547.11 1342.74 545.53
  Q 1344.00 542.17 1345.51 538.90
  C 1347.00 535.68 1347.73 531.48 1350.00 528.10
  Q 1350.28 527.68 1350.25 527.18
  Q 1350.18 526.29 1350.48 525.45
  C 1353.05 518.15 1356.33 510.72 1358.06 503.19
  C 1358.99 499.16 1360.94 495.58 1362.12 491.53
  Q 1362.15 491.44 1362.23 491.39
  L 1362.61 491.17
  A 0.30 0.30 0.0 0 0 1362.76 490.93
  Q 1363.03 488.43 1364.43 486.42
  Q 1364.74 485.97 1364.70 485.43
  Q 1364.59 484.01 1365.40 481.42
  Q 1367.45 474.95 1369.78 468.54
  Q 1370.53 466.47 1370.15 459.65
  Q 1370.13 459.19 1369.79 458.88
  Q 1368.25 457.46 1368.74 455.51
  A 0.18 0.15 -31.5 0 0 1368.41 455.46
  Q 1367.63 457.31 1367.02 459.24
  Q 1366.89 459.66 1366.74 459.24
  L 1366.36 458.20
  L 1374.25 435.25
  A 0.57 0.57 0.0 0 0 1373.71 434.50
  L 1309.05 434.49
  A 0.63 0.62 8.0 0 0 1308.45 434.94
  L 1266.46 576.25
  A 0.29 0.29 0.0 0 1 1265.90 576.25
  Q 1244.81 505.44 1223.58 434.66
  A 0.21 0.20 -7.2 0 0 1223.38 434.51
  L 1157.97 434.49
  Q 1157.48 434.49 1157.64 434.96
  L 1165.18 456.76
  Z"
/>
<path fill="#000000" d="
  M 1507.15 331.19
  C 1502.48 354.08 1490.70 377.56 1480.54 398.06
  C 1476.52 406.18 1467.87 400.68 1461.79 398.03
  Q 1433.64 385.77 1408.16 368.60
  C 1405.35 366.71 1403.03 366.25 1399.61 367.42
  Q 1351.97 383.82 1301.57 386.41
  C 1272.28 387.91 1241.97 376.63 1219.23 358.92
  C 1193.66 338.99 1175.83 316.54 1154.67 294.41
  C 1148.81 288.28 1141.46 281.20 1135.95 276.80
  C 1130.59 272.51 1117.01 266.03 1109.55 269.55
  C 1105.32 271.55 1102.90 275.43 1099.05 277.49
  Q 1096.99 278.60 1095.16 278.45
  Q 1086.99 273.58 1089.92 266.00
  C 1095.16 252.49 1117.20 247.26 1130.21 245.05
  C 1157.28 240.46 1186.11 237.01 1211.51 229.77
  C 1212.96 229.36 1214.27 228.41 1215.01 226.95
  C 1226.78 203.73 1243.28 184.42 1264.66 169.66
  C 1270.96 165.31 1277.34 160.39 1283.84 157.03
  C 1313.59 141.65 1350.22 134.42 1383.51 141.19
  C 1421.09 148.83 1450.99 165.72 1475.44 196.32
  C 1506.27 234.91 1517.38 283.22 1507.15 331.19
  Z
  M 1242.08 209.03
  Q 1234.17 219.03 1228.22 230.52
  Q 1227.95 231.04 1228.47 231.32
  L 1236.02 235.30
  Q 1243.71 239.44 1250.93 243.11
  C 1252.46 243.88 1254.03 243.29 1254.98 241.84
  Q 1266.98 223.49 1271.43 218.19
  Q 1291.43 194.36 1316.29 175.38
  Q 1331.42 165.52 1347.28 156.65
  L 1353.43 153.04
  Q 1354.30 152.53 1353.28 152.55
  C 1309.53 153.42 1268.89 174.67 1242.08 209.03
  Z
  M 1272.68 255.72
  L 1380.37 333.48
  Q 1380.80 333.79 1381.07 333.33
  C 1387.60 322.28 1395.33 310.80 1401.05 300.50
  Q 1410.22 284.01 1418.47 267.03
  C 1426.40 250.71 1431.58 234.44 1435.96 216.73
  Q 1437.41 210.85 1437.70 206.48
  C 1438.66 196.82 1437.86 182.84 1430.60 174.79
  Q 1427.79 171.67 1420.44 168.09
  C 1409.76 162.87 1396.36 155.87 1388.31 157.30
  C 1358.90 162.53 1334.81 176.89 1311.92 195.35
  Q 1305.16 200.80 1297.58 208.66
  C 1284.56 222.17 1274.65 234.72 1265.04 249.69
  Q 1264.78 250.08 1265.16 250.36
  L 1272.68 255.72
  Z
  M 1396.88 344.55
  C 1420.39 360.81 1443.83 376.44 1470.76 386.49
  Q 1471.44 386.74 1471.74 386.09
  C 1478.09 372.18 1485.90 357.02 1490.43 343.57
  Q 1497.42 322.84 1497.97 300.79
  C 1498.98 259.10 1484.50 224.89 1457.15 194.08
  Q 1454.28 190.85 1450.62 188.14
  Q 1449.96 187.65 1450.06 188.47
  C 1452.80 210.26 1448.25 228.78 1440.66 248.17
  Q 1429.25 277.30 1413.46 304.31
  Q 1402.84 322.48 1392.07 340.67
  Q 1391.78 341.16 1392.26 341.48
  L 1396.88 344.55
  Z
  M 1207.51 245.20
  L 1134.72 257.97
  A 0.49 0.49 0.0 0 0 1134.51 258.84
  L 1145.23 267.07
  L 1153.85 274.26
  Q 1170.13 290.46 1192.19 315.06
  Q 1212.91 338.17 1240.30 356.15
  C 1252.46 364.13 1264.34 370.01 1277.75 372.02
  C 1308.75 376.65 1340.34 370.85 1372.45 362.45
  Q 1381.06 360.40 1389.74 357.22
  Q 1390.20 357.06 1389.81 356.77
  Q 1347.15 326.39 1305.20 295.04
  Q 1282.74 278.26 1259.14 263.15
  C 1247.69 255.81 1235.93 249.92 1223.77 244.20
  C 1218.37 241.66 1213.17 243.05 1207.51 245.20
  Z"
/>
<path fill="#66ced6" d="
  M 1347.28 156.65
  L 1346.74 155.35
  Q 1346.57 154.96 1346.15 154.93
  C 1339.96 154.52 1336.40 155.76 1330.02 156.51
  Q 1323.55 157.28 1309.07 162.10
  Q 1305.46 163.30 1303.26 164.45
  C 1301.99 165.11 1300.37 165.46 1299.08 166.27
  Q 1297.39 167.34 1296.09 167.70
  Q 1290.57 169.25 1286.02 172.76
  Q 1285.64 173.05 1285.17 173.12
  Q 1283.67 173.34 1283.19 174.81
  Q 1283.00 175.40 1282.40 175.23
  Q 1281.18 174.87 1280.61 176.01
  Q 1280.38 176.49 1279.91 176.76
  Q 1264.29 185.60 1252.99 198.21
  C 1250.19 201.34 1247.81 203.34 1245.61 206.64
  Q 1244.14 208.84 1242.08 209.03
  C 1268.89 174.67 1309.53 153.42 1353.28 152.55
  Q 1354.30 152.53 1353.43 153.04
  L 1347.28 156.65
  Z"
/>
<path fill="#54a9b0" d="
  M 1347.28 156.65
  Q 1331.42 165.52 1316.29 175.38
  Q 1309.57 178.57 1303.53 183.36
  Q 1303.31 183.54 1303.06 183.39
  C 1301.31 182.39 1292.69 187.26 1291.01 188.44
  C 1287.37 190.99 1284.59 191.96 1280.68 193.16
  A 1.53 1.52 -80.5 0 0 1279.93 193.70
  C 1277.90 196.44 1274.58 196.00 1273.03 199.58
  A 1.07 1.07 0.0 0 1 1272.35 200.18
  Q 1268.99 201.12 1267.13 203.95
  Q 1266.84 204.38 1266.37 204.59
  Q 1261.79 206.58 1259.05 210.61
  C 1258.08 212.04 1257.83 214.06 1256.22 215.65
  Q 1255.86 216.01 1255.37 216.12
  C 1251.26 217.04 1245.26 226.87 1243.84 229.88
  Q 1243.23 231.19 1242.00 231.93
  Q 1241.57 232.19 1241.41 232.66
  Q 1240.46 235.43 1236.02 235.30
  L 1228.47 231.32
  Q 1227.95 231.04 1228.22 230.52
  Q 1234.17 219.03 1242.08 209.03
  Q 1244.14 208.84 1245.61 206.64
  C 1247.81 203.34 1250.19 201.34 1252.99 198.21
  Q 1264.29 185.60 1279.91 176.76
  Q 1280.38 176.49 1280.61 176.01
  Q 1281.18 174.87 1282.40 175.23
  Q 1283.00 175.40 1283.19 174.81
  Q 1283.67 173.34 1285.17 173.12
  Q 1285.64 173.05 1286.02 172.76
  Q 1290.57 169.25 1296.09 167.70
  Q 1297.39 167.34 1299.08 166.27
  C 1300.37 165.46 1301.99 165.11 1303.26 164.45
  Q 1305.46 163.30 1309.07 162.10
  Q 1323.55 157.28 1330.02 156.51
  C 1336.40 155.76 1339.96 154.52 1346.15 154.93
  Q 1346.57 154.96 1346.74 155.35
  L 1347.28 156.65
  Z"
/>
<path fill="#54a9b0" d="
  M 1437.70 206.48
  Q 1437.25 205.66 1436.65 206.23
  A 1.14 1.14 0.0 0 1 1434.75 205.63
  Q 1433.99 201.83 1432.20 198.37
  C 1429.66 193.44 1425.25 192.17 1420.88 189.53
  C 1418.09 187.85 1415.56 186.62 1412.81 184.61
  Q 1406.87 180.27 1399.85 177.94
  C 1397.35 177.11 1394.18 177.12 1391.05 176.70
  C 1384.38 175.79 1373.68 178.90 1366.71 181.43
  Q 1365.38 181.91 1362.91 183.23
  C 1359.78 184.91 1356.04 185.83 1353.27 187.25
  Q 1351.38 188.22 1349.48 189.12
  C 1346.05 190.74 1342.80 190.69 1340.06 194.29
  C 1338.78 195.98 1335.92 199.39 1333.75 199.64
  A 1.67 1.66 -68.3 0 0 1332.88 200.02
  Q 1327.54 204.66 1321.55 208.42
  C 1319.52 209.70 1318.48 211.98 1315.56 212.62
  A 1.68 1.63 16.3 0 0 1314.75 213.05
  Q 1312.73 214.99 1310.60 216.76
  C 1307.23 219.57 1305.10 223.31 1301.86 226.36
  Q 1298.25 229.76 1294.84 233.35
  C 1292.69 235.60 1288.94 238.74 1286.55 242.04
  C 1284.87 244.36 1282.04 246.46 1281.02 249.81
  Q 1280.87 250.29 1280.48 250.59
  C 1277.38 253.00 1278.63 257.23 1272.68 255.72
  L 1265.16 250.36
  Q 1264.78 250.08 1265.04 249.69
  C 1274.65 234.72 1284.56 222.17 1297.58 208.66
  Q 1305.16 200.80 1311.92 195.35
  C 1334.81 176.89 1358.90 162.53 1388.31 157.30
  C 1396.36 155.87 1409.76 162.87 1420.44 168.09
  Q 1427.79 171.67 1430.60 174.79
  C 1437.86 182.84 1438.66 196.82 1437.70 206.48
  Z"
/>
<path fill="#66ced6" d="
  M 1316.29 175.38
  Q 1291.43 194.36 1271.43 218.19
  Q 1266.98 223.49 1254.98 241.84
  C 1254.03 243.29 1252.46 243.88 1250.93 243.11
  Q 1243.71 239.44 1236.02 235.30
  Q 1240.46 235.43 1241.41 232.66
  Q 1241.57 232.19 1242.00 231.93
  Q 1243.23 231.19 1243.84 229.88
  C 1245.26 226.87 1251.26 217.04 1255.37 216.12
  Q 1255.86 216.01 1256.22 215.65
  C 1257.83 214.06 1258.08 212.04 1259.05 210.61
  Q 1261.79 206.58 1266.37 204.59
  Q 1266.84 204.38 1267.13 203.95
  Q 1268.99 201.12 1272.35 200.18
  A 1.07 1.07 0.0 0 0 1273.03 199.58
  C 1274.58 196.00 1277.90 196.44 1279.93 193.70
  A 1.53 1.52 -80.5 0 1 1280.68 193.16
  C 1284.59 191.96 1287.37 190.99 1291.01 188.44
  C 1292.69 187.26 1301.31 182.39 1303.06 183.39
  Q 1303.31 183.54 1303.53 183.36
  Q 1309.57 178.57 1316.29 175.38
  Z"
/>
<path fill="#66ced6" d="
  M 1437.70 206.48
  Q 1437.41 210.85 1435.96 216.73
  C 1431.58 234.44 1426.40 250.71 1418.47 267.03
  Q 1410.22 284.01 1401.05 300.50
  C 1395.33 310.80 1387.60 322.28 1381.07 333.33
  Q 1380.80 333.79 1380.37 333.48
  L 1272.68 255.72
  C 1278.63 257.23 1277.38 253.00 1280.48 250.59
  Q 1280.87 250.29 1281.02 249.81
  C 1282.04 246.46 1284.87 244.36 1286.55 242.04
  C 1288.94 238.74 1292.69 235.60 1294.84 233.35
  Q 1298.25 229.76 1301.86 226.36
  C 1305.10 223.31 1307.23 219.57 1310.60 216.76
  Q 1312.73 214.99 1314.75 213.05
  A 1.68 1.63 16.3 0 1 1315.56 212.62
  C 1318.48 211.98 1319.52 209.70 1321.55 208.42
  Q 1327.54 204.66 1332.88 200.02
  A 1.67 1.66 -68.3 0 1 1333.75 199.64
  C 1335.92 199.39 1338.78 195.98 1340.06 194.29
  C 1342.80 190.69 1346.05 190.74 1349.48 189.12
  Q 1351.38 188.22 1353.27 187.25
  C 1356.04 185.83 1359.78 184.91 1362.91 183.23
  Q 1365.38 181.91 1366.71 181.43
  C 1373.68 178.90 1384.38 175.79 1391.05 176.70
  C 1394.18 177.12 1397.35 177.11 1399.85 177.94
  Q 1406.87 180.27 1412.81 184.61
  C 1415.56 186.62 1418.09 187.85 1420.88 189.53
  C 1425.25 192.17 1429.66 193.44 1432.20 198.37
  Q 1433.99 201.83 1434.75 205.63
  A 1.14 1.14 0.0 0 0 1436.65 206.23
  Q 1437.25 205.66 1437.70 206.48
  Z"
/>
<path fill="#54a9b0" d="
  M 1497.97 300.79
  C 1497.58 298.80 1498.25 295.34 1497.10 294.56
  Q 1496.70 294.29 1496.47 293.87
  C 1494.91 290.99 1494.87 286.43 1493.70 282.89
  C 1492.68 279.83 1492.21 277.25 1491.73 274.28
  C 1491.45 272.56 1490.47 271.18 1490.06 269.39
  C 1489.28 265.99 1488.14 263.42 1487.26 260.32
  A 1.07 1.07 0.0 0 0 1486.69 259.64
  C 1485.93 259.26 1482.71 251.15 1481.97 249.70
  C 1480.68 247.19 1479.62 242.99 1477.04 240.17
  Q 1476.71 239.81 1476.61 239.34
  Q 1476.06 236.75 1473.97 234.51
  Q 1469.91 230.16 1466.47 224.04
  Q 1466.17 223.49 1464.47 222.48
  Q 1464.05 222.22 1463.84 221.78
  C 1462.34 218.65 1455.01 211.86 1453.31 218.25
  Q 1452.39 221.71 1450.86 232.89
  C 1450.45 235.91 1450.48 239.01 1449.13 242.24
  Q 1448.93 242.71 1448.98 243.21
  Q 1449.19 245.23 1447.63 246.44
  Q 1447.28 246.71 1447.18 247.15
  C 1445.99 252.85 1444.71 257.66 1442.25 262.97
  C 1440.88 265.93 1440.49 268.78 1438.66 272.26
  C 1437.80 273.88 1437.85 275.84 1436.35 277.42
  Q 1436.01 277.77 1436.01 278.26
  C 1435.99 279.99 1434.94 281.06 1434.43 282.21
  Q 1432.77 286.01 1431.30 289.87
  Q 1431.14 290.28 1430.75 290.46
  Q 1430.11 290.76 1430.25 291.42
  Q 1430.35 291.94 1429.98 292.32
  Q 1428.73 293.60 1428.35 295.37
  Q 1428.26 295.79 1427.91 296.05
  C 1427.57 296.30 1427.26 296.52 1427.08 296.92
  Q 1421.39 309.30 1413.94 320.75
  Q 1413.68 321.14 1413.69 321.62
  Q 1413.69 324.10 1411.73 325.45
  Q 1411.30 325.74 1411.06 326.19
  C 1409.75 328.68 1404.10 337.62 1404.16 339.75
  A 1.12 1.09 -22.2 0 1 1403.78 340.62
  Q 1402.67 341.60 1401.77 342.77
  C 1400.19 344.83 1400.68 345.77 1396.88 344.55
  L 1392.26 341.48
  Q 1391.78 341.16 1392.07 340.67
  Q 1402.84 322.48 1413.46 304.31
  Q 1429.25 277.30 1440.66 248.17
  C 1448.25 228.78 1452.80 210.26 1450.06 188.47
  Q 1449.96 187.65 1450.62 188.14
  Q 1454.28 190.85 1457.15 194.08
  C 1484.50 224.89 1498.98 259.10 1497.97 300.79
  Z"
/>
<path fill="#66ced6" d="
  M 1497.97 300.79
  Q 1497.42 322.84 1490.43 343.57
  C 1485.90 357.02 1478.09 372.18 1471.74 386.09
  Q 1471.44 386.74 1470.76 386.49
  C 1443.83 376.44 1420.39 360.81 1396.88 344.55
  C 1400.68 345.77 1400.19 344.83 1401.77 342.77
  Q 1402.67 341.60 1403.78 340.62
  A 1.12 1.09 -22.2 0 0 1404.16 339.75
  C 1404.10 337.62 1409.75 328.68 1411.06 326.19
  Q 1411.30 325.74 1411.73 325.45
  Q 1413.69 324.10 1413.69 321.62
  Q 1413.68 321.14 1413.94 320.75
  Q 1421.39 309.30 1427.08 296.92
  C 1427.26 296.52 1427.57 296.30 1427.91 296.05
  Q 1428.26 295.79 1428.35 295.37
  Q 1428.73 293.60 1429.98 292.32
  Q 1430.35 291.94 1430.25 291.42
  Q 1430.11 290.76 1430.75 290.46
  Q 1431.14 290.28 1431.30 289.87
  Q 1432.77 286.01 1434.43 282.21
  C 1434.94 281.06 1435.99 279.99 1436.01 278.26
  Q 1436.01 277.77 1436.35 277.42
  C 1437.85 275.84 1437.80 273.88 1438.66 272.26
  C 1440.49 268.78 1440.88 265.93 1442.25 262.97
  C 1444.71 257.66 1445.99 252.85 1447.18 247.15
  Q 1447.28 246.71 1447.63 246.44
  Q 1449.19 245.23 1448.98 243.21
  Q 1448.93 242.71 1449.13 242.24
  C 1450.48 239.01 1450.45 235.91 1450.86 232.89
  Q 1452.39 221.71 1453.31 218.25
  C 1455.01 211.86 1462.34 218.65 1463.84 221.78
  Q 1464.05 222.22 1464.47 222.48
  Q 1466.17 223.49 1466.47 224.04
  Q 1469.91 230.16 1473.97 234.51
  Q 1476.06 236.75 1476.61 239.34
  Q 1476.71 239.81 1477.04 240.17
  C 1479.62 242.99 1480.68 247.19 1481.97 249.70
  C 1482.71 251.15 1485.93 259.26 1486.69 259.64
  A 1.07 1.07 0.0 0 1 1487.26 260.32
  C 1488.14 263.42 1489.28 265.99 1490.06 269.39
  C 1490.47 271.18 1491.45 272.56 1491.73 274.28
  C 1492.21 277.25 1492.68 279.83 1493.70 282.89
  C 1494.87 286.43 1494.91 290.99 1496.47 293.87
  Q 1496.70 294.29 1497.10 294.56
  C 1498.25 295.34 1497.58 298.80 1497.97 300.79
  Z"
/>
<path fill="#54a9b0" d="
  M 1372.45 362.45
  Q 1370.41 361.58 1367.74 361.65
  Q 1367.21 361.67 1366.93 361.22
  C 1364.51 357.43 1361.10 356.10 1357.90 353.67
  Q 1355.93 352.17 1353.66 351.06
  Q 1353.62 351.04 1353.67 351.03
  Q 1353.82 351.01 1353.97 351.00
  Q 1354.21 350.99 1354.00 350.88
  Q 1347.14 347.65 1345.19 346.33
  Q 1340.09 342.90 1335.02 339.46
  C 1333.90 338.71 1332.13 338.02 1330.87 336.70
  Q 1329.03 334.79 1328.22 334.22
  C 1323.43 330.86 1319.61 326.62 1314.89 323.50
  Q 1310.82 320.81 1306.90 317.89
  C 1305.35 316.74 1303.32 316.40 1301.78 315.04
  C 1298.10 311.81 1294.11 309.17 1290.04 306.48
  Q 1288.82 305.68 1287.98 304.47
  Q 1287.71 304.07 1287.26 303.87
  Q 1281.87 301.45 1275.74 296.01
  Q 1272.71 293.32 1266.98 289.95
  C 1264.56 288.52 1256.83 282.20 1254.09 282.70
  Q 1253.62 282.78 1253.25 282.47
  C 1251.51 280.98 1249.86 280.57 1248.27 278.83
  Q 1244.67 274.88 1239.40 273.26
  Q 1239.33 273.24 1239.31 273.17
  Q 1239.27 273.04 1239.24 272.91
  Q 1239.16 272.51 1238.75 272.56
  Q 1237.48 272.71 1236.17 271.57
  C 1235.73 271.18 1229.02 268.34 1228.95 268.16
  Q 1228.79 267.77 1228.41 267.59
  C 1220.74 263.96 1209.81 262.97 1202.12 267.17
  Q 1201.68 267.41 1201.19 267.30
  C 1198.62 266.69 1195.83 267.59 1194.14 267.69
  Q 1184.19 268.26 1180.52 269.57
  C 1175.06 271.52 1168.99 272.50 1163.29 273.66
  C 1161.59 274.00 1159.14 275.74 1157.05 274.91
  Q 1154.99 274.09 1153.85 274.26
  L 1145.23 267.07
  Q 1142.85 263.66 1139.36 261.40
  A 1.38 1.38 0.0 0 1 1139.56 258.97
  Q 1141.23 258.25 1143.49 258.06
  C 1145.29 257.91 1146.53 257.13 1148.41 256.89
  C 1152.68 256.36 1156.92 255.49 1161.23 255.26
  Q 1161.73 255.23 1162.15 254.96
  C 1164.25 253.62 1167.14 253.99 1169.06 253.53
  C 1173.19 252.55 1177.43 252.38 1181.55 251.35
  Q 1184.24 250.68 1186.99 250.28
  C 1191.51 249.61 1195.85 248.51 1200.37 248.12
  C 1202.34 247.94 1203.99 246.93 1206.18 247.00
  Q 1206.70 247.01 1207.01 246.61
  Q 1207.47 246.02 1207.51 245.20
  C 1213.17 243.05 1218.37 241.66 1223.77 244.20
  C 1235.93 249.92 1247.69 255.81 1259.14 263.15
  Q 1282.74 278.26 1305.20 295.04
  Q 1347.15 326.39 1389.81 356.77
  Q 1390.20 357.06 1389.74 357.22
  Q 1381.06 360.40 1372.45 362.45
  Z"
/>
<path fill="#66ced6" d="
  M 1207.51 245.20
  Q 1207.47 246.02 1207.01 246.61
  Q 1206.70 247.01 1206.18 247.00
  C 1203.99 246.93 1202.34 247.94 1200.37 248.12
  C 1195.85 248.51 1191.51 249.61 1186.99 250.28
  Q 1184.24 250.68 1181.55 251.35
  C 1177.43 252.38 1173.19 252.55 1169.06 253.53
  C 1167.14 253.99 1164.25 253.62 1162.15 254.96
  Q 1161.73 255.23 1161.23 255.26
  C 1156.92 255.49 1152.68 256.36 1148.41 256.89
  C 1146.53 257.13 1145.29 257.91 1143.49 258.06
  Q 1141.23 258.25 1139.56 258.97
  A 1.38 1.38 0.0 0 0 1139.36 261.40
  Q 1142.85 263.66 1145.23 267.07
  L 1134.51 258.84
  A 0.49 0.49 0.0 0 1 1134.72 257.97
  L 1207.51 245.20
  Z"
/>
<path fill="#66ced6" d="
  M 1372.45 362.45
  C 1340.34 370.85 1308.75 376.65 1277.75 372.02
  C 1264.34 370.01 1252.46 364.13 1240.30 356.15
  Q 1212.91 338.17 1192.19 315.06
  Q 1170.13 290.46 1153.85 274.26
  Q 1154.99 274.09 1157.05 274.91
  C 1159.14 275.74 1161.59 274.00 1163.29 273.66
  C 1168.99 272.50 1175.06 271.52 1180.52 269.57
  Q 1184.19 268.26 1194.14 267.69
  C 1195.83 267.59 1198.62 266.69 1201.19 267.30
  Q 1201.68 267.41 1202.12 267.17
  C 1209.81 262.97 1220.74 263.96 1228.41 267.59
  Q 1228.79 267.77 1228.95 268.16
  C 1229.02 268.34 1235.73 271.18 1236.17 271.57
  Q 1237.48 272.71 1238.75 272.56
  Q 1239.16 272.51 1239.24 272.91
  Q 1239.27 273.04 1239.31 273.17
  Q 1239.33 273.24 1239.40 273.26
  Q 1244.67 274.88 1248.27 278.83
  C 1249.86 280.57 1251.51 280.98 1253.25 282.47
  Q 1253.62 282.78 1254.09 282.70
  C 1256.83 282.20 1264.56 288.52 1266.98 289.95
  Q 1272.71 293.32 1275.74 296.01
  Q 1281.87 301.45 1287.26 303.87
  Q 1287.71 304.07 1287.98 304.47
  Q 1288.82 305.68 1290.04 306.48
  C 1294.11 309.17 1298.10 311.81 1301.78 315.04
  C 1303.32 316.40 1305.35 316.74 1306.90 317.89
  Q 1310.82 320.81 1314.89 323.50
  C 1319.61 326.62 1323.43 330.86 1328.22 334.22
  Q 1329.03 334.79 1330.87 336.70
  C 1332.13 338.02 1333.90 338.71 1335.02 339.46
  Q 1340.09 342.90 1345.19 346.33
  Q 1347.14 347.65 1354.00 350.88
  Q 1354.21 350.99 1353.97 351.00
  Q 1353.82 351.01 1353.67 351.03
  Q 1353.62 351.04 1353.66 351.06
  Q 1355.93 352.17 1357.90 353.67
  C 1361.10 356.10 1364.51 357.43 1366.93 361.22
  Q 1367.21 361.67 1367.74 361.65
  Q 1370.41 361.58 1372.45 362.45
  Z"
/>
<path fill="#54a9b0" d="
  M 1507.15 331.19
  Q 1508.21 332.26 1508.98 331.09
  A 0.62 0.62 0.0 0 1 1510.11 331.50
  C 1509.40 337.20 1508.83 342.30 1507.36 347.95
  C 1505.09 356.64 1504.18 363.79 1499.97 373.18
  Q 1498.86 375.66 1497.86 379.69
  C 1496.68 384.49 1494.43 387.88 1492.52 392.29
  C 1490.38 397.26 1487.30 401.79 1485.40 406.69
  C 1483.35 411.98 1479.25 417.77 1473.15 418.29
  C 1467.13 418.81 1464.17 416.20 1459.33 414.25
  C 1454.26 412.19 1449.55 409.28 1444.29 407.50
  Q 1440.41 406.18 1436.79 404.30
  C 1430.99 401.29 1427.84 399.80 1423.55 397.30
  C 1422.61 396.75 1421.71 395.34 1420.21 395.03
  A 2.39 2.32 69.0 0 1 1419.28 394.60
  Q 1415.82 391.96 1411.96 389.94
  A 1.63 1.54 54.2 0 0 1411.02 389.76
  Q 1408.57 390.02 1406.70 388.39
  A 1.89 1.82 -20.3 0 0 1405.72 387.96
  Q 1399.70 387.25 1393.69 386.86
  C 1389.49 386.59 1384.74 389.71 1380.82 391.00
  Q 1379.30 391.49 1375.55 393.25
  Q 1372.42 394.71 1368.84 394.83
  Q 1368.38 394.85 1368.00 395.10
  Q 1366.91 395.84 1365.64 395.59
  A 3.96 3.84 45.9 0 0 1364.34 395.55
  L 1354.93 396.93
  Q 1354.43 397.01 1354.03 397.31
  C 1352.44 398.54 1350.69 398.17 1349.09 398.74
  C 1344.30 400.43 1339.51 399.16 1334.50 399.96
  C 1326.96 401.16 1320.96 401.76 1314.06 402.40
  C 1307.94 402.97 1299.02 404.29 1292.73 403.51
  Q 1285.81 402.66 1282.51 402.74
  Q 1282.13 402.75 1282.04 402.37
  C 1281.97 402.09 1281.93 401.98 1281.61 401.94
  C 1271.34 400.67 1262.78 397.51 1253.50 394.49
  C 1251.14 393.72 1248.88 391.86 1245.87 391.04
  Q 1240.91 389.71 1237.94 387.05
  Q 1234.17 383.69 1230.18 383.01
  C 1224.30 382.00 1219.22 376.94 1214.83 373.83
  Q 1211.29 371.31 1208.14 368.12
  Q 1203.06 362.97 1197.55 358.27
  C 1196.18 357.10 1195.42 355.12 1193.61 354.09
  Q 1193.19 353.85 1192.94 353.44
  Q 1191.93 351.80 1189.41 349.84
  C 1185.59 346.86 1180.45 339.40 1174.21 333.57
  C 1172.52 331.99 1171.49 329.91 1170.00 328.38
  Q 1165.79 324.05 1161.93 319.41
  Q 1161.78 319.22 1161.54 319.24
  Q 1161.38 319.25 1161.23 319.27
  Q 1161.19 319.27 1161.17 319.24
  Q 1159.31 316.89 1156.89 315.03
  A 1.00 0.99 18.9 0 1 1156.50 314.24
  Q 1156.50 313.12 1155.38 312.72
  A 2.25 2.23 -11.7 0 1 1154.50 312.15
  C 1152.58 310.12 1150.25 307.23 1147.92 305.74
  C 1146.88 305.08 1146.69 305.39 1146.39 304.32
  A 1.47 1.41 10.2 0 0 1145.81 303.52
  C 1138.93 298.82 1134.54 294.33 1128.57 291.18
  C 1126.12 289.88 1122.83 289.92 1120.08 287.65
  A 1.50 1.46 -22.6 0 0 1119.22 287.31
  Q 1116.16 287.11 1113.12 287.28
  C 1110.33 287.43 1105.41 289.60 1103.23 291.49
  Q 1098.70 295.43 1092.96 292.04
  Q 1092.53 291.79 1092.39 291.31
  Q 1090.38 284.32 1095.16 278.45
  Q 1096.99 278.60 1099.05 277.49
  C 1102.90 275.43 1105.32 271.55 1109.55 269.55
  C 1117.01 266.03 1130.59 272.51 1135.95 276.80
  C 1141.46 281.20 1148.81 288.28 1154.67 294.41
  C 1175.83 316.54 1193.66 338.99 1219.23 358.92
  C 1241.97 376.63 1272.28 387.91 1301.57 386.41
  Q 1351.97 383.82 1399.61 367.42
  C 1403.03 366.25 1405.35 366.71 1408.16 368.60
  Q 1433.64 385.77 1461.79 398.03
  C 1467.87 400.68 1476.52 406.18 1480.54 398.06
  C 1490.70 377.56 1502.48 354.08 1507.15 331.19
  Z"
/>
<path fill="#ffff6a" d="
  M 420.24 460.00
  L 359.99 460.01
  A 1.15 1.15 0.0 0 1 358.84 458.93
  C 356.31 417.52 331.16 399.78 290.69 403.73
  C 245.05 408.19 235.96 454.11 235.17 491.26
  C 234.65 514.80 234.33 539.09 238.53 561.99
  C 244.10 592.31 259.62 614.15 292.94 616.03
  C 331.24 618.19 356.24 602.06 358.51 561.96
  A 0.75 0.75 0.0 0 1 359.26 561.25
  L 421.77 561.25
  Q 422.32 561.25 422.25 561.79
  L 420.82 574.79
  C 409.55 645.07 346.58 673.99 281.43 667.70
  C 230.16 662.75 192.52 628.37 178.50 579.75
  C 169.69 549.19 169.85 517.78 170.82 486.09
  C 175.30 399.03 232.27 340.11 322.51 352.46
  C 381.30 360.51 417.45 401.30 422.65 459.38
  Q 422.70 459.94 422.14 459.95
  L 420.24 460.00
  Z"
/>
<path fill="#54a9b0" d="
  M 420.24 460.00
  Q 420.12 460.40 420.67 460.57
  Q 420.93 460.65 420.76 460.86
  Q 420.67 460.97 420.61 461.07
  A 0.12 0.09 -35.8 0 0 420.59 461.13
  C 421.37 475.95 411.72 477.12 399.33 477.21
  Q 381.95 477.35 373.81 477.27
  C 362.11 477.17 359.37 470.47 356.10 460.01
  C 354.03 453.38 351.83 445.92 347.31 440.50
  C 343.49 435.91 339.47 431.18 334.29 428.28
  C 328.53 425.05 322.81 423.03 316.27 421.96
  C 314.22 421.62 312.92 420.63 310.76 420.67
  C 307.26 420.73 303.72 420.01 300.40 420.11
  C 292.37 420.36 287.11 419.53 279.94 423.24
  C 275.22 425.67 270.37 426.43 265.75 429.34
  A 0.98 0.01 -46.3 0 0 265.08 430.03
  Q 264.78 430.33 264.26 430.25
  A 1.12 1.12 0.0 0 0 263.35 430.49
  Q 253.04 438.90 246.48 450.49
  Q 244.44 454.09 239.63 468.09
  C 239.05 469.78 237.45 470.96 238.59 473.34
  Q 238.81 473.80 238.59 474.25
  C 235.99 479.57 237.16 484.25 236.81 489.98
  C 236.74 491.05 236.21 491.39 235.17 491.26
  C 235.96 454.11 245.05 408.19 290.69 403.73
  C 331.16 399.78 356.31 417.52 358.84 458.93
  A 1.15 1.15 0.0 0 0 359.99 460.01
  L 420.24 460.00
  Z"
/>
<path fill="#ffff6a" d="
  M 654.15 664.24
  L 593.60 664.23
  Q 593.10 664.23 592.89 663.78
  Q 588.46 654.49 587.11 644.28
  Q 587.03 643.69 586.63 644.13
  C 567.95 664.69 542.63 671.01 515.50 667.53
  C 481.69 663.18 453.39 639.71 451.07 604.00
  C 448.54 546.25 497.16 525.23 546.19 524.26
  Q 565.04 523.89 583.89 523.67
  Q 584.42 523.66 584.42 523.13
  L 584.30 512.23
  C 585.20 484.51 567.19 472.12 541.00 476.76
  Q 518.80 480.70 517.56 502.63
  Q 517.49 503.77 516.35 503.77
  C 500.46 503.76 484.82 503.49 469.10 503.77
  Q 462.71 503.88 456.17 503.46
  Q 456.16 483.74 467.72 467.68
  C 494.47 430.51 551.66 423.32 592.26 435.74
  C 617.66 443.52 638.21 463.69 643.86 490.33
  C 645.42 497.65 645.98 504.21 645.98 512.35
  Q 646.01 560.80 646.12 609.25
  C 646.16 627.30 647.67 643.84 654.80 659.91
  C 655.36 661.17 655.84 663.97 654.15 664.24
  Z
  M 515.29 607.08
  C 528.38 631.91 569.44 621.39 582.71 602.22
  Q 584.91 599.05 584.10 595.73
  L 584.27 560.37
  Q 584.27 559.87 583.78 559.86
  C 556.10 559.00 509.96 556.65 512.75 598.52
  Q 513.00 602.21 515.29 607.08
  Z"
/>
<path fill="#ffff6a" d="
  M 899.23 531.02
  C 902.90 575.23 894.97 632.71 852.44 657.82
  C 835.88 667.61 815.24 670.37 796.44 667.35
  Q 771.86 663.40 755.15 645.08
  Q 754.78 644.67 754.77 645.23
  L 754.43 752.01
  A 0.51 0.50 -89.4 0 1 753.93 752.51
  L 696.57 752.51
  L 693.84 752.43
  Q 693.25 752.41 693.25 751.83
  L 693.25 435.50
  Q 693.25 434.50 694.25 434.50
  L 749.57 434.50
  A 0.56 0.55 87.1 0 1 750.12 435.00
  L 752.20 456.00
  Q 752.28 456.88 752.85 456.21
  C 771.74 434.00 798.21 426.97 826.49 431.55
  C 875.83 439.53 896.41 486.31 899.23 531.02
  Z
  M 764.46 609.13
  Q 773.46 616.55 785.19 618.16
  C 818.29 622.71 833.78 600.93 836.81 571.14
  C 840.80 542.79 840.51 485.80 800.50 480.77
  C 783.43 478.62 764.71 483.69 755.87 499.90
  Q 754.79 501.87 754.78 504.38
  Q 754.47 548.88 754.49 593.37
  C 754.49 598.91 760.53 605.62 764.46 609.13
  Z"
/>
<path fill="#ffff6a" d="
  M 1141.93 585.91
  C 1134.68 625.64 1110.29 662.75 1067.27 667.86
  C 1041.83 670.89 1017.66 664.17 1000.00 645.04
  Q 999.50 644.50 999.50 645.24
  L 999.50 751.75
  A 0.75 0.75 0.0 0 1 998.75 752.50
  L 939.01 752.50
  Q 938.11 752.50 938.11 751.61
  L 938.02 457.75
  L 938.18 434.77
  A 0.29 0.29 0.0 0 1 938.47 434.48
  L 994.51 434.51
  Q 995.02 434.51 995.06 435.01
  L 997.04 456.02
  A 0.43 0.43 0.0 0 0 997.80 456.26
  Q 1017.69 432.58 1048.99 430.51
  C 1137.59 424.65 1152.41 521.41 1141.93 585.91
  Z
  M 1010.33 609.68
  Q 1018.10 616.34 1029.51 618.07
  C 1060.15 622.71 1075.70 605.47 1080.81 577.06
  Q 1082.83 565.88 1082.90 558.28
  C 1084.99 532.67 1081.44 490.24 1050.56 481.71
  C 1045.12 480.21 1038.76 480.25 1032.97 480.63
  Q 1011.13 482.06 1000.55 500.27
  Q 999.47 502.13 999.48 504.45
  Q 999.53 549.03 999.49 593.54
  C 999.48 599.47 1005.83 606.17 1010.33 609.68
  Z"
/>
<path fill="#ffff6a" d="
  M 1366.36 458.20
  Q 1362.83 467.95 1359.43 477.73
  Q 1322.89 582.90 1286.45 688.11
  C 1276.67 716.35 1264.49 743.49 1233.71 753.38
  C 1217.73 758.51 1198.87 757.75 1182.65 753.11
  A 1.26 1.25 -82.1 0 1 1181.74 751.90
  L 1181.72 729.75
  Q 1182.27 718.58 1181.61 707.88
  A 1.69 1.69 0.0 0 1 1183.49 706.09
  Q 1195.92 707.47 1207.43 704.84
  C 1225.27 700.76 1230.37 686.33 1235.42 670.70
  L 1237.61 665.15
  Q 1237.80 664.67 1237.63 664.19
  L 1165.18 456.76
  L 1157.64 434.96
  Q 1157.48 434.49 1157.97 434.49
  L 1223.38 434.51
  A 0.21 0.20 -7.2 0 1 1223.58 434.66
  Q 1244.81 505.44 1265.90 576.25
  A 0.29 0.29 0.0 0 0 1266.46 576.25
  L 1308.45 434.94
  A 0.63 0.62 8.0 0 1 1309.05 434.49
  L 1373.71 434.50
  A 0.57 0.57 0.0 0 1 1374.25 435.25
  L 1366.36 458.20
  Z"
/>
<path fill="#54a9b0" d="
  M 1181.72 729.75
  L 1181.74 751.90
  A 1.26 1.25 -82.1 0 0 1182.65 753.11
  C 1198.87 757.75 1217.73 758.51 1233.71 753.38
  C 1264.49 743.49 1276.67 716.35 1286.45 688.11
  Q 1322.89 582.90 1359.43 477.73
  Q 1362.83 467.95 1366.36 458.20
  L 1366.74 459.24
  Q 1366.89 459.66 1367.02 459.24
  Q 1367.63 457.31 1368.41 455.46
  A 0.18 0.15 -31.5 0 1 1368.74 455.51
  Q 1368.25 457.46 1369.79 458.88
  Q 1370.13 459.19 1370.15 459.65
  Q 1370.53 466.47 1369.78 468.54
  Q 1367.45 474.95 1365.40 481.42
  Q 1364.59 484.01 1364.70 485.43
  Q 1364.74 485.97 1364.43 486.42
  Q 1363.03 488.43 1362.76 490.93
  A 0.30 0.30 0.0 0 1 1362.61 491.17
  L 1362.23 491.39
  Q 1362.15 491.44 1362.12 491.53
  C 1360.94 495.58 1358.99 499.16 1358.06 503.19
  C 1356.33 510.72 1353.05 518.15 1350.48 525.45
  Q 1350.18 526.29 1350.25 527.18
  Q 1350.28 527.68 1350.00 528.10
  C 1347.73 531.48 1347.00 535.68 1345.51 538.90
  Q 1344.00 542.17 1342.74 545.53
  C 1342.15 547.11 1342.51 548.96 1341.74 550.59
  C 1340.22 553.75 1339.55 557.14 1338.04 560.36
  Q 1337.09 562.36 1336.76 564.82
  Q 1335.99 570.70 1332.83 574.55
  Q 1331.50 576.17 1331.17 577.52
  Q 1330.68 579.54 1330.66 579.58
  Q 1325.63 591.86 1322.66 604.82
  C 1321.77 608.70 1320.03 613.39 1318.48 617.22
  C 1313.12 630.48 1309.52 645.01 1303.32 659.41
  Q 1303.12 659.89 1303.21 660.40
  Q 1303.69 663.15 1302.27 665.47
  A 2.01 2.01 0.0 0 0 1301.98 666.51
  Q 1302.03 669.87 1299.71 672.62
  A 0.17 0.17 0.0 0 1 1299.44 672.42
  Q 1301.39 669.36 1301.28 665.79
  Q 1301.26 665.11 1300.99 665.73
  Q 1300.64 666.51 1300.74 667.37
  A 2.13 2.12 -37.5 0 1 1300.61 668.34
  Q 1295.67 681.08 1291.34 694.03
  C 1290.58 696.30 1288.79 698.93 1288.41 701.71
  C 1287.89 705.50 1287.28 707.01 1285.33 709.78
  A 1.81 1.77 -26.6 0 0 1285.02 710.68
  Q 1284.61 716.76 1281.54 722.01
  C 1279.45 725.59 1278.86 729.45 1276.41 733.00
  Q 1274.90 735.19 1273.87 737.10
  Q 1267.87 748.25 1258.69 756.96
  C 1256.87 758.68 1254.07 759.07 1252.01 760.98
  C 1249.52 763.27 1247.14 764.29 1244.65 766.27
  Q 1242.37 768.08 1240.28 768.81
  C 1230.79 772.12 1221.85 773.60 1212.28 775.11
  C 1207.31 775.90 1202.53 774.56 1197.69 774.26
  C 1192.76 773.97 1185.27 770.81 1182.61 766.41
  Q 1182.53 766.29 1182.74 766.25
  Q 1182.90 766.22 1182.82 766.07
  C 1179.83 760.50 1180.76 755.74 1180.21 750.20
  Q 1179.16 739.72 1181.72 729.75
  Z"
/>
<path fill="#54a9b0" d="
  M 1165.18 456.76
  L 1237.63 664.19
  Q 1237.80 664.67 1237.61 665.15
  L 1235.42 670.70
  L 1236.20 666.18
  A 0.07 0.07 0.0 0 0 1236.06 666.14
  L 1233.58 673.10
  A 0.20 0.20 0.0 0 1 1233.19 673.02
  Q 1233.22 672.09 1233.51 671.23
  Q 1233.64 670.83 1233.52 670.44
  C 1230.68 661.19 1227.26 653.26 1224.97 644.72
  Q 1223.65 639.77 1222.58 636.95
  Q 1220.25 630.80 1218.10 624.60
  C 1217.63 623.23 1217.97 621.76 1217.12 620.55
  Q 1215.83 618.68 1214.54 614.95
  C 1206.74 592.29 1199.29 569.44 1191.18 546.90
  Q 1184.88 529.41 1178.83 511.83
  A 2.51 2.32 -77.3 0 0 1178.35 511.00
  Q 1178.08 510.71 1177.93 510.32
  C 1175.51 504.03 1173.72 497.73 1171.15 491.29
  C 1168.90 485.67 1167.35 479.92 1165.32 474.29
  C 1163.74 469.89 1160.94 463.83 1163.41 459.36
  A 1.30 1.25 52.6 0 0 1163.52 458.40
  Q 1163.26 457.43 1163.98 456.90
  Q 1164.25 456.70 1164.25 457.03
  L 1164.25 457.50
  Q 1164.25 458.16 1164.47 457.53
  Q 1164.75 456.74 1165.18 456.76
  Z"
/>
<path fill="#54a9b0" d="
  M 938.02 457.75
  L 938.11 751.61
  Q 938.11 752.50 939.01 752.50
  L 998.75 752.50
  A 0.75 0.75 0.0 0 0 999.50 751.75
  L 999.50 645.24
  Q 999.50 644.50 1000.00 645.04
  C 1017.66 664.17 1041.83 670.89 1067.27 667.86
  C 1110.29 662.75 1134.68 625.64 1141.93 585.91
  Q 1142.21 585.94 1142.46 586.08
  Q 1142.69 586.21 1142.77 585.97
  Q 1143.55 583.60 1143.84 581.18
  C 1144.29 577.35 1145.16 573.78 1144.96 569.94
  Q 1144.93 569.39 1145.16 568.89
  Q 1146.38 566.23 1145.94 563.30
  Q 1145.84 562.62 1146.07 563.26
  C 1147.31 566.72 1145.48 568.75 1145.31 571.43
  C 1145.11 574.81 1146.13 577.76 1145.87 580.85
  Q 1145.05 590.83 1144.14 600.78
  C 1143.94 602.88 1143.15 604.85 1142.73 607.01
  Q 1142.48 608.34 1142.05 609.47
  Q 1140.22 614.37 1139.69 619.63
  A 1.60 1.54 -22.5 0 1 1139.31 620.50
  C 1138.14 621.81 1138.33 623.37 1137.79 624.68
  Q 1133.65 634.57 1128.65 644.05
  C 1125.85 649.35 1122.01 653.99 1118.42 658.94
  C 1116.75 661.24 1114.39 662.20 1112.73 664.20
  C 1108.44 669.34 1102.57 673.35 1096.52 676.92
  C 1091.31 679.99 1085.09 681.70 1079.24 683.81
  Q 1079.00 683.90 1079.00 684.16
  Q 1079.00 684.33 1078.95 684.43
  Q 1078.94 684.46 1078.92 684.46
  C 1074.17 685.42 1070.16 686.31 1065.02 686.15
  C 1062.41 686.07 1048.52 687.33 1047.28 685.54
  A 0.76 0.75 70.7 0 0 1046.63 685.22
  Q 1040.52 685.59 1034.58 684.04
  Q 1034.16 683.93 1033.83 683.64
  C 1032.80 682.71 1031.45 682.78 1030.44 682.42
  C 1025.49 680.66 1020.63 678.68 1015.66 676.99
  C 1009.88 675.03 1007.41 671.34 1001.40 676.17
  Q 1001.04 676.47 1001.03 676.94
  Q 1000.98 712.36 1000.83 747.82
  C 1000.83 749.45 1001.31 750.90 1000.78 752.79
  Q 999.99 755.56 1000.28 758.54
  Q 1000.33 759.03 1000.07 759.46
  C 998.58 761.91 998.02 764.76 996.10 766.69
  C 989.96 772.82 976.09 770.15 967.90 770.04
  C 965.34 770.00 962.79 771.34 959.79 770.55
  A 1.91 1.89 45.3 0 0 958.83 770.54
  Q 955.36 771.44 952.05 770.68
  C 946.68 769.45 941.63 769.93 939.28 763.76
  C 938.22 760.98 936.15 755.71 936.64 752.17
  C 937.26 747.65 937.01 742.94 937.39 737.68
  Q 937.95 729.86 936.82 720.41
  C 936.63 718.74 937.21 717.41 937.20 715.50
  Q 937.17 704.31 937.47 670.78
  C 937.54 663.71 936.78 654.76 937.08 646.66
  Q 937.36 639.12 937.25 632.84
  C 936.89 610.46 937.41 584.36 937.34 545.42
  C 937.32 532.55 937.11 518.02 937.29 504.37
  C 937.37 498.00 936.60 491.77 937.10 485.64
  C 937.84 476.46 937.15 467.11 937.43 458.44
  Q 937.44 457.92 938.02 457.75
  Z"
/>
<path fill="#54a9b0" d="
  M 584.30 512.23
  L 584.23 521.66
  Q 584.23 522.00 583.94 522.15
  L 583.41 522.43
  Q 583.21 522.54 583.19 522.32
  C 582.84 518.96 582.45 516.02 580.73 512.97
  C 577.96 508.04 575.51 503.54 571.08 500.57
  Q 566.79 497.69 566.62 497.56
  Q 564.54 495.99 562.33 494.50
  Q 561.91 494.22 561.41 494.22
  C 555.32 494.13 547.60 493.25 542.32 494.58
  C 537.11 495.90 528.20 498.41 526.03 502.45
  Q 524.92 504.52 523.88 505.65
  C 520.37 509.53 516.41 518.31 510.73 519.70
  C 503.08 521.57 496.04 521.99 488.21 521.35
  C 485.48 521.13 482.42 521.63 479.46 521.19
  Q 478.98 521.12 478.55 521.35
  Q 477.34 522.02 476.12 521.59
  A 4.11 3.89 55.3 0 0 475.12 521.38
  C 467.65 520.83 460.08 520.23 458.09 511.61
  Q 457.97 511.12 458.14 510.65
  Q 458.99 508.34 457.81 506.32
  Q 457.51 505.81 458.02 505.51
  L 458.29 505.34
  Q 458.90 504.98 458.19 504.97
  Q 455.82 504.93 456.17 503.46
  Q 462.71 503.88 469.10 503.77
  C 484.82 503.49 500.46 503.76 516.35 503.77
  Q 517.49 503.77 517.56 502.63
  Q 518.80 480.70 541.00 476.76
  C 567.19 472.12 585.20 484.51 584.30 512.23
  Z"
/>
<path fill="#54a9b0" d="
  M 836.81 571.14
  Q 835.53 566.66 836.39 561.81
  C 837.67 554.67 837.09 547.06 837.10 539.80
  Q 837.10 539.57 836.87 539.54
  L 836.45 539.48
  Q 836.16 539.44 836.14 539.15
  C 835.64 532.14 832.56 526.29 829.44 520.18
  C 827.10 515.59 823.95 512.11 820.53 508.38
  A 1.75 1.72 -71.1 0 1 820.09 507.46
  Q 819.86 505.97 818.45 505.90
  Q 817.91 505.87 817.52 505.49
  C 815.43 503.46 808.91 498.77 805.75 498.50
  C 799.23 497.95 792.96 496.22 786.48 497.53
  Q 782.32 498.37 778.07 498.08
  A 1.08 1.05 -63.7 0 0 777.28 498.36
  Q 775.44 500.03 773.06 500.63
  A 2.19 2.11 18.2 0 0 772.25 501.02
  L 760.77 509.76
  A 1.43 1.38 82.6 0 0 760.34 510.34
  Q 758.96 514.00 756.05 516.54
  Q 755.65 516.88 755.66 517.41
  Q 756.19 555.53 755.89 593.67
  C 755.85 598.85 760.00 603.90 763.71 607.05
  Q 765.07 608.20 764.46 609.13
  C 760.53 605.62 754.49 598.91 754.49 593.37
  Q 754.47 548.88 754.78 504.38
  Q 754.79 501.87 755.87 499.90
  C 764.71 483.69 783.43 478.62 800.50 480.77
  C 840.51 485.80 840.80 542.79 836.81 571.14
  Z"
/>
<path fill="#54a9b0" d="
  M 1082.90 558.28
  Q 1081.98 556.21 1081.91 553.93
  Q 1081.81 551.16 1081.38 549.63
  Q 1079.73 543.84 1079.26 537.81
  A 0.05 0.05 0.0 0 0 1079.17 537.78
  L 1079.00 537.98
  Q 1078.76 538.25 1078.70 537.89
  C 1075.73 521.60 1066.23 506.95 1050.60 501.34
  C 1047.76 500.32 1045.95 498.36 1042.18 499.68
  A 1.63 1.59 41.9 0 1 1041.22 499.72
  Q 1036.57 498.43 1031.98 499.84
  A 1.70 1.68 45.3 0 1 1030.98 499.83
  C 1025.38 498.06 1010.83 507.32 1007.33 511.83
  Q 1004.70 515.21 1002.01 518.60
  Q 1001.71 518.98 1001.77 519.46
  Q 1001.89 520.49 1001.17 521.31
  Q 1000.92 521.59 1000.92 521.97
  L 1000.73 596.26
  Q 1000.73 596.89 1001.11 597.40
  L 1010.33 609.68
  C 1005.83 606.17 999.48 599.47 999.49 593.54
  Q 999.53 549.03 999.48 504.45
  Q 999.47 502.13 1000.55 500.27
  Q 1011.13 482.06 1032.97 480.63
  C 1038.76 480.25 1045.12 480.21 1050.56 481.71
  C 1081.44 490.24 1084.99 532.67 1082.90 558.28
  Z"
/>
<path fill="#54a9b0" d="
  M 170.82 486.09
  C 169.85 517.78 169.69 549.19 178.50 579.75
  C 192.52 628.37 230.16 662.75 281.43 667.70
  C 346.58 673.99 409.55 645.07 420.82 574.79
  Q 421.21 574.42 421.53 574.50
  Q 422.06 574.62 421.94 575.15
  L 420.71 580.79
  Q 420.59 581.35 421.01 581.72
  C 424.45 584.78 423.88 590.71 423.28 595.01
  C 422.08 603.55 420.48 613.16 416.39 620.84
  C 414.76 623.90 413.41 627.19 411.79 630.02
  C 406.25 639.69 402.04 646.03 394.54 653.15
  C 390.86 656.65 386.98 661.29 382.71 664.87
  C 379.97 667.16 376.03 668.72 372.82 670.92
  Q 371.08 672.12 368.48 673.07
  C 365.80 674.06 363.66 675.86 361.10 676.74
  Q 357.49 677.98 353.98 679.48
  C 349.20 681.52 345.08 682.78 340.47 684.22
  C 335.78 685.69 330.83 686.21 325.97 687.04
  C 322.74 687.58 318.63 687.46 315.03 688.28
  Q 313.74 688.57 311.40 688.68
  C 309.53 688.77 308.29 689.47 306.52 689.47
  Q 294.50 689.44 282.50 688.80
  C 276.59 688.48 269.38 687.26 263.78 685.19
  C 261.51 684.35 259.65 684.64 257.46 683.65
  Q 248.30 679.50 241.50 678.03
  Q 232.34 676.05 226.30 671.05
  Q 225.91 670.73 225.43 670.57
  C 224.17 670.14 223.83 668.98 222.98 668.29
  Q 215.94 662.62 209.25 656.54
  C 204.83 652.51 201.25 647.26 197.07 642.62
  C 194.39 639.64 191.49 635.43 189.99 631.71
  C 189.38 630.21 188.20 629.27 187.51 627.94
  C 185.90 624.83 183.14 622.22 181.97 619.02
  C 180.71 615.56 178.87 612.52 177.98 609.06
  Q 175.42 599.14 172.95 589.20
  C 167.97 569.14 166.35 548.56 166.86 527.93
  C 166.96 524.05 165.64 498.88 168.59 496.81
  A 0.99 0.97 72.7 0 0 169.00 496.01
  L 169.00 487.23
  A 0.67 0.67 0.0 0 1 169.44 486.60
  L 170.82 486.09
  Z"
/>
<path fill="#66ced6" d="
  M 836.81 571.14
  C 833.78 600.93 818.29 622.71 785.19 618.16
  Q 773.46 616.55 764.46 609.13
  Q 765.07 608.20 763.71 607.05
  C 760.00 603.90 755.85 598.85 755.89 593.67
  Q 756.19 555.53 755.66 517.41
  Q 755.65 516.88 756.05 516.54
  Q 758.96 514.00 760.34 510.34
  A 1.43 1.38 82.6 0 1 760.77 509.76
  L 772.25 501.02
  A 2.19 2.11 18.2 0 1 773.06 500.63
  Q 775.44 500.03 777.28 498.36
  A 1.08 1.05 -63.7 0 1 778.07 498.08
  Q 782.32 498.37 786.48 497.53
  C 792.96 496.22 799.23 497.95 805.75 498.50
  C 808.91 498.77 815.43 503.46 817.52 505.49
  Q 817.91 505.87 818.45 505.90
  Q 819.86 505.97 820.09 507.46
  A 1.75 1.72 -71.1 0 0 820.53 508.38
  C 823.95 512.11 827.10 515.59 829.44 520.18
  C 832.56 526.29 835.64 532.14 836.14 539.15
  Q 836.16 539.44 836.45 539.48
  L 836.87 539.54
  Q 837.10 539.57 837.10 539.80
  C 837.09 547.06 837.67 554.67 836.39 561.81
  Q 835.53 566.66 836.81 571.14
  Z"
/>
<path fill="#66ced6" d="
  M 1082.90 558.28
  Q 1082.83 565.88 1080.81 577.06
  C 1075.70 605.47 1060.15 622.71 1029.51 618.07
  Q 1018.10 616.34 1010.33 609.68
  L 1001.11 597.40
  Q 1000.73 596.89 1000.73 596.26
  L 1000.92 521.97
  Q 1000.92 521.59 1001.17 521.31
  Q 1001.89 520.49 1001.77 519.46
  Q 1001.71 518.98 1002.01 518.60
  Q 1004.70 515.21 1007.33 511.83
  C 1010.83 507.32 1025.38 498.06 1030.98 499.83
  A 1.70 1.68 45.3 0 0 1031.98 499.84
  Q 1036.57 498.43 1041.22 499.72
  A 1.63 1.59 41.9 0 0 1042.18 499.68
  C 1045.95 498.36 1047.76 500.32 1050.60 501.34
  C 1066.23 506.95 1075.73 521.60 1078.70 537.89
  Q 1078.76 538.25 1079.00 537.98
  L 1079.17 537.78
  A 0.05 0.05 0.0 0 1 1079.26 537.81
  Q 1079.73 543.84 1081.38 549.63
  Q 1081.81 551.16 1081.91 553.93
  Q 1081.98 556.21 1082.90 558.28
  Z"
/>
<path fill="#54a9b0" d="
  M 696.57 752.51
  L 753.93 752.51
  A 0.51 0.50 -89.4 0 0 754.43 752.01
  L 754.77 645.23
  Q 754.78 644.67 755.15 645.08
  Q 771.86 663.40 796.44 667.35
  C 815.24 670.37 835.88 667.61 852.44 657.82
  C 894.97 632.71 902.90 575.23 899.23 531.02
  L 899.62 530.49
  A 0.62 0.62 0.0 0 1 900.73 530.87
  Q 900.66 535.20 901.04 539.75
  C 901.10 540.39 900.51 541.27 900.50 542.11
  Q 900.41 552.96 900.89 563.80
  C 901.04 567.11 900.03 570.33 899.96 573.86
  C 899.89 578.07 898.59 582.42 898.02 586.61
  C 897.71 588.96 896.39 592.13 896.91 595.34
  Q 896.99 595.87 896.65 596.29
  Q 895.45 597.73 896.20 599.35
  Q 896.42 599.84 896.24 600.35
  Q 894.98 603.88 894.21 607.52
  Q 894.06 608.19 893.94 612.04
  C 893.86 614.52 892.39 617.04 891.84 619.03
  Q 890.44 624.09 888.69 629.03
  C 886.62 634.92 883.23 639.82 880.01 645.40
  C 875.41 653.36 868.58 660.36 861.66 666.34
  C 860.48 667.35 859.35 669.45 858.07 670.08
  C 853.34 672.42 848.78 674.67 843.94 677.19
  Q 835.57 681.55 826.23 683.41
  C 822.93 684.07 817.07 683.44 812.33 684.85
  C 809.81 685.60 807.53 684.74 805.27 684.75
  Q 799.64 684.79 794.44 682.68
  Q 793.99 682.49 793.52 682.60
  Q 788.60 683.65 785.27 679.87
  Q 784.93 679.48 784.44 679.34
  L 764.13 673.37
  Q 763.77 673.26 763.55 672.96
  Q 763.09 672.35 762.17 672.28
  Q 761.70 672.25 761.35 671.93
  Q 760.86 671.49 760.13 671.31
  Q 759.54 671.17 759.37 671.76
  Q 759.15 672.52 758.34 672.71
  Q 757.81 672.83 757.49 673.26
  L 756.17 675.05
  A 1.12 1.11 63.9 0 0 755.94 675.73
  L 755.91 752.04
  A 1.22 1.20 85.3 0 1 754.91 753.24
  L 752.00 753.73
  A 0.25 0.09 -26.1 0 0 751.74 754.00
  Q 751.89 754.00 752.02 754.00
  Q 752.22 754.00 752.18 754.19
  C 749.73 765.27 743.21 768.08 732.50 767.07
  Q 727.19 766.56 707.32 766.93
  C 700.93 767.04 697.43 760.69 695.34 755.73
  Q 695.18 755.36 694.81 755.19
  L 693.44 754.61
  A 0.35 0.34 -31.5 0 1 693.60 753.95
  Q 697.64 754.16 696.57 752.51
  Z"
/>
<path fill="#54a9b0" d="
  M 584.10 595.73
  Q 583.12 591.69 583.58 587.43
  A 0.13 0.13 0.0 0 0 583.33 587.38
  Q 583.27 587.55 583.22 587.73
  Q 583.14 587.98 583.07 587.73
  L 582.65 586.30
  A 0.05 0.05 0.0 0 0 582.55 586.30
  L 582.49 586.73
  Q 582.44 587.13 582.26 586.76
  Q 579.27 580.63 572.32 580.19
  Q 571.82 580.15 571.39 579.89
  L 569.27 578.60
  Q 568.90 578.37 568.47 578.40
  C 565.75 578.57 563.55 577.63 560.95 577.99
  C 545.16 580.20 528.59 581.13 518.81 596.02
  Q 518.56 596.39 518.62 596.83
  Q 519.14 600.73 515.68 602.47
  A 0.89 0.89 0.0 0 0 515.19 603.28
  L 515.29 607.08
  Q 513.00 602.21 512.75 598.52
  C 509.96 556.65 556.10 559.00 583.78 559.86
  Q 584.27 559.87 584.27 560.37
  L 584.10 595.73
  Z"
/>
<path fill="#66ced6" d="
  M 584.10 595.73
  Q 584.91 599.05 582.71 602.22
  C 569.44 621.39 528.38 631.91 515.29 607.08
  L 515.19 603.28
  A 0.89 0.89 0.0 0 1 515.68 602.47
  Q 519.14 600.73 518.62 596.83
  Q 518.56 596.39 518.81 596.02
  C 528.59 581.13 545.16 580.20 560.95 577.99
  C 563.55 577.63 565.75 578.57 568.47 578.40
  Q 568.90 578.37 569.27 578.60
  L 571.39 579.89
  Q 571.82 580.15 572.32 580.19
  Q 579.27 580.63 582.26 586.76
  Q 582.44 587.13 582.49 586.73
  L 582.55 586.30
  A 0.05 0.05 0.0 0 1 582.65 586.30
  L 583.07 587.73
  Q 583.14 587.98 583.22 587.73
  Q 583.27 587.55 583.33 587.38
  A 0.13 0.13 0.0 0 1 583.58 587.43
  Q 583.12 591.69 584.10 595.73
  Z"
/>
<path fill="#54a9b0" d="
  M 451.07 604.00
  C 453.39 639.71 481.69 663.18 515.50 667.53
  C 542.63 671.01 567.95 664.69 586.63 644.13
  Q 587.03 643.69 587.11 644.28
  Q 588.46 654.49 592.89 663.78
  Q 593.10 664.23 593.60 664.23
  L 654.15 664.24
  C 653.79 667.30 654.45 671.30 653.27 673.98
  Q 652.59 675.52 651.93 677.07
  C 649.56 682.62 647.62 681.17 642.91 682.41
  Q 637.98 683.72 636.00 683.74
  Q 618.72 683.94 606.25 683.72
  Q 601.93 683.64 597.82 682.10
  C 593.25 680.38 589.19 675.50 584.49 674.24
  Q 583.00 673.85 579.13 674.19
  C 574.62 674.59 569.88 677.61 565.87 679.65
  C 561.45 681.90 553.99 684.74 548.94 685.65
  C 544.66 686.42 540.44 687.77 536.28 687.98
  C 528.03 688.39 519.16 688.31 511.15 686.14
  C 508.62 685.45 506.32 685.58 503.95 684.76
  C 499.84 683.34 495.28 682.17 491.69 680.54
  Q 483.00 676.60 473.81 669.09
  C 456.47 654.93 447.57 636.05 448.84 613.48
  Q 449.06 609.46 451.07 604.00
  Z"
/>
</svg>
